<?xml version="1.0" encoding="utf-8"?>
<!-- Generator: Adobe Illustrator 24.3.0, SVG Export Plug-In . SVG Version: 6.00 Build 0)  -->
<svg version="1.1" id="Layer_1" xmlns="http://www.w3.org/2000/svg" xmlns:xlink="http://www.w3.org/1999/xlink" x="0px" y="0px"
     viewBox="0 0 432 140.1" style="enable-background:new 0 0 432 140.1;" xml:space="preserve">
<style type="text/css">
    .st0{fill:url(#SVGID_1_);}
    .st1{fill:url(#SVGID_2_);}
    .st2{fill:url(#SVGID_3_);}
    .st3{fill:url(#SVGID_4_);}
    .st4{fill:url(#SVGID_5_);}
    .st5{fill:url(#SVGID_6_);}
    .st6{fill:url(#SVGID_7_);}
    .st7{fill:url(#SVGID_8_);}
    .st8{fill:url(#SVGID_9_);}
    .st9{fill:url(#SVGID_10_);}
</style>
<g>
    <g>
        <path d="M129.1,120.1c0.2,0.3,0.4,0.6,0.7,0.8c0.3,0.2,0.6,0.3,1,0.4c0.4,0.1,0.8,0.1,1.1,0.1c0.3,0,0.6,0,0.9-0.1
            c0.3,0,0.6-0.1,0.9-0.3c0.3-0.1,0.5-0.3,0.7-0.5c0.2-0.2,0.3-0.5,0.3-0.8c0-0.4-0.1-0.7-0.4-0.9c-0.2-0.2-0.5-0.4-0.9-0.6
            c-0.4-0.2-0.8-0.3-1.3-0.4s-1-0.2-1.5-0.4c-0.5-0.1-1-0.3-1.5-0.5c-0.5-0.2-0.9-0.4-1.3-0.7c-0.4-0.3-0.7-0.7-0.9-1.1
            c-0.2-0.4-0.4-1-0.4-1.6c0-0.7,0.1-1.3,0.4-1.8c0.3-0.5,0.7-0.9,1.2-1.3c0.5-0.3,1-0.6,1.6-0.8c0.6-0.2,1.2-0.2,1.8-0.2
            c0.7,0,1.4,0.1,2.1,0.2c0.7,0.2,1.2,0.4,1.7,0.8c0.5,0.4,0.9,0.8,1.2,1.4c0.3,0.6,0.4,1.2,0.4,2H134c0-0.4-0.1-0.7-0.3-1
            c-0.1-0.3-0.3-0.5-0.6-0.6c-0.2-0.2-0.5-0.3-0.8-0.3c-0.3-0.1-0.7-0.1-1-0.1c-0.2,0-0.5,0-0.7,0.1c-0.2,0.1-0.5,0.1-0.7,0.3
            c-0.2,0.1-0.4,0.3-0.5,0.5c-0.1,0.2-0.2,0.4-0.2,0.7c0,0.3,0.1,0.5,0.2,0.6c0.1,0.2,0.3,0.3,0.6,0.5c0.3,0.1,0.7,0.3,1.2,0.4
            c0.5,0.1,1.2,0.3,2.1,0.5c0.3,0.1,0.6,0.1,1.1,0.3c0.5,0.1,0.9,0.3,1.3,0.6c0.4,0.3,0.8,0.7,1.2,1.2c0.3,0.5,0.5,1.1,0.5,1.9
            c0,0.6-0.1,1.2-0.4,1.7c-0.2,0.5-0.6,1-1.1,1.4c-0.5,0.4-1.1,0.7-1.8,0.9s-1.5,0.3-2.5,0.3c-0.8,0-1.5-0.1-2.2-0.3
            c-0.7-0.2-1.3-0.5-1.9-0.9c-0.5-0.4-1-0.9-1.3-1.5s-0.5-1.3-0.5-2.2h2.9C128.8,119.4,128.9,119.8,129.1,120.1z"/>
        <path d="M139,112.1v-2.2h2.7v2.2H139z M141.7,113.6v9.9H139v-9.9H141.7z"/>
        <path d="M146.4,113.6v1.3h0c0.4-0.5,0.8-0.9,1.3-1.2c0.5-0.3,1.1-0.4,1.7-0.4c0.6,0,1.2,0.1,1.7,0.4s0.9,0.7,1.2,1.3
            c0.3-0.4,0.7-0.8,1.2-1.1c0.5-0.3,1.1-0.5,1.8-0.5c0.5,0,1,0.1,1.5,0.2c0.4,0.1,0.8,0.3,1.1,0.6c0.3,0.3,0.6,0.6,0.7,1.1
            c0.2,0.5,0.3,1,0.3,1.6v6.6h-2.7v-5.6c0-0.3,0-0.6,0-0.9c0-0.3-0.1-0.5-0.2-0.8c-0.1-0.2-0.3-0.4-0.5-0.5
            c-0.2-0.1-0.5-0.2-0.9-0.2c-0.4,0-0.7,0.1-0.9,0.2c-0.2,0.1-0.4,0.3-0.6,0.6c-0.1,0.2-0.2,0.5-0.3,0.8c0,0.3-0.1,0.6-0.1,0.9v5.5
            h-2.7V118c0-0.3,0-0.6,0-0.9c0-0.3-0.1-0.5-0.2-0.8c-0.1-0.2-0.3-0.4-0.5-0.6c-0.2-0.1-0.6-0.2-1-0.2c-0.1,0-0.3,0-0.5,0.1
            c-0.2,0.1-0.4,0.2-0.6,0.3c-0.2,0.2-0.4,0.4-0.5,0.7c-0.1,0.3-0.2,0.7-0.2,1.2v5.7h-2.7v-9.9H146.4z"/>
        <path d="M167.8,123.5v-1.4h-0.1c-0.3,0.6-0.8,1-1.3,1.2c-0.5,0.3-1.1,0.4-1.7,0.4c-0.7,0-1.3-0.1-1.8-0.3
            c-0.5-0.2-0.8-0.5-1.1-0.8c-0.3-0.3-0.5-0.8-0.6-1.3c-0.1-0.5-0.2-1.1-0.2-1.7v-6.1h2.7v5.6c0,0.8,0.1,1.4,0.4,1.8
            c0.3,0.4,0.7,0.6,1.4,0.6c0.7,0,1.3-0.2,1.6-0.7c0.3-0.4,0.5-1.2,0.5-2.2v-5.2h2.7v9.9H167.8z"/>
        <path d="M175.2,109.9v13.6h-2.7v-13.6H175.2z"/>
        <path d="M177.2,116.7c0-0.6,0.2-1.2,0.5-1.6c0.3-0.4,0.6-0.8,1.1-1c0.4-0.3,0.9-0.4,1.5-0.5c0.5-0.1,1.1-0.2,1.6-0.2
            c0.5,0,1,0,1.5,0.1c0.5,0.1,1,0.2,1.4,0.4c0.4,0.2,0.8,0.5,1,0.8c0.3,0.4,0.4,0.8,0.4,1.4v5.1c0,0.4,0,0.9,0.1,1.3
            c0.1,0.4,0.1,0.7,0.3,0.9h-2.7c-0.1-0.2-0.1-0.3-0.1-0.5c0-0.2-0.1-0.3-0.1-0.5c-0.4,0.4-0.9,0.8-1.5,0.9
            c-0.6,0.2-1.2,0.3-1.8,0.3c-0.5,0-0.9-0.1-1.3-0.2c-0.4-0.1-0.8-0.3-1.1-0.5c-0.3-0.2-0.5-0.5-0.7-0.9c-0.2-0.4-0.3-0.8-0.3-1.3
            c0-0.6,0.1-1,0.3-1.4c0.2-0.4,0.5-0.7,0.8-0.9c0.3-0.2,0.7-0.4,1.1-0.5c0.4-0.1,0.8-0.2,1.2-0.3c0.4-0.1,0.8-0.1,1.2-0.2
            c0.4,0,0.7-0.1,1-0.2c0.3-0.1,0.5-0.2,0.7-0.3c0.2-0.1,0.3-0.4,0.2-0.6c0-0.3,0-0.5-0.1-0.7c-0.1-0.2-0.2-0.3-0.4-0.4
            c-0.2-0.1-0.3-0.2-0.6-0.2c-0.2,0-0.4,0-0.7,0c-0.5,0-1,0.1-1.3,0.3s-0.5,0.6-0.5,1.1H177.2z M183.5,118.7
            c-0.1,0.1-0.3,0.2-0.4,0.2c-0.2,0.1-0.4,0.1-0.6,0.1c-0.2,0-0.4,0.1-0.6,0.1c-0.2,0-0.4,0.1-0.6,0.1c-0.2,0-0.4,0.1-0.6,0.2
            c-0.2,0.1-0.4,0.2-0.5,0.3c-0.1,0.1-0.3,0.2-0.4,0.4c-0.1,0.2-0.1,0.4-0.1,0.6c0,0.2,0,0.4,0.1,0.6c0.1,0.2,0.2,0.3,0.4,0.4
            c0.2,0.1,0.3,0.2,0.5,0.2c0.2,0,0.4,0.1,0.6,0.1c0.5,0,0.9-0.1,1.2-0.3c0.3-0.2,0.5-0.4,0.6-0.6c0.1-0.2,0.2-0.5,0.3-0.8
            c0-0.3,0-0.5,0-0.6V118.7z"/>
        <path d="M193.7,113.6v1.8h-2v4.9c0,0.5,0.1,0.8,0.2,0.9c0.2,0.2,0.5,0.2,0.9,0.2c0.2,0,0.3,0,0.4,0c0.1,0,0.3,0,0.4-0.1v2.1
            c-0.2,0-0.5,0.1-0.8,0.1c-0.3,0-0.6,0-0.8,0c-0.4,0-0.8,0-1.2-0.1c-0.4-0.1-0.7-0.2-1-0.3c-0.3-0.2-0.5-0.4-0.7-0.7
            c-0.2-0.3-0.2-0.7-0.2-1.2v-5.8h-1.6v-1.8h1.6v-3h2.7v3H193.7z"/>
        <path d="M195.1,112.1v-2.2h2.7v2.2H195.1z M197.8,113.6v9.9h-2.7v-9.9H197.8z"/>
        <path d="M200,116.4c0.2-0.6,0.6-1.2,1-1.6c0.4-0.5,1-0.8,1.6-1c0.6-0.2,1.3-0.4,2.1-0.4c0.8,0,1.5,0.1,2.1,0.4
            c0.6,0.2,1.2,0.6,1.6,1c0.4,0.5,0.8,1,1,1.6c0.2,0.6,0.4,1.4,0.4,2.1c0,0.8-0.1,1.5-0.4,2.1c-0.2,0.6-0.6,1.2-1,1.6
            c-0.4,0.5-1,0.8-1.6,1c-0.6,0.2-1.3,0.4-2.1,0.4c-0.8,0-1.5-0.1-2.1-0.4c-0.6-0.2-1.2-0.6-1.6-1c-0.4-0.5-0.8-1-1-1.6
            c-0.2-0.6-0.4-1.3-0.4-2.1C199.6,117.8,199.7,117.1,200,116.4z M202.5,119.7c0.1,0.4,0.2,0.7,0.4,1c0.2,0.3,0.4,0.5,0.7,0.7
            c0.3,0.2,0.7,0.3,1.1,0.3s0.8-0.1,1.2-0.3c0.3-0.2,0.6-0.4,0.7-0.7c0.2-0.3,0.3-0.6,0.4-1c0.1-0.4,0.1-0.8,0.1-1.2
            c0-0.4,0-0.8-0.1-1.2c-0.1-0.4-0.2-0.7-0.4-1s-0.4-0.5-0.7-0.7c-0.3-0.2-0.7-0.3-1.2-0.3s-0.8,0.1-1.1,0.3
            c-0.3,0.2-0.5,0.4-0.7,0.7c-0.2,0.3-0.3,0.6-0.4,1c-0.1,0.4-0.1,0.8-0.1,1.2C202.3,119,202.4,119.4,202.5,119.7z"/>
        <path d="M214.2,113.6v1.4h0.1c0.3-0.6,0.8-1,1.3-1.2c0.5-0.3,1.1-0.4,1.7-0.4c0.7,0,1.3,0.1,1.8,0.3c0.5,0.2,0.8,0.5,1.1,0.8
            c0.3,0.3,0.5,0.8,0.6,1.3c0.1,0.5,0.2,1.1,0.2,1.7v6.1h-2.7v-5.6c0-0.8-0.1-1.4-0.4-1.8c-0.3-0.4-0.7-0.6-1.4-0.6
            c-0.7,0-1.3,0.2-1.6,0.7c-0.3,0.4-0.5,1.2-0.5,2.2v5.2h-2.7v-9.9H214.2z"/>
        <path d="M225.2,121c0.1,0.2,0.3,0.4,0.5,0.5c0.2,0.1,0.4,0.2,0.7,0.3c0.2,0.1,0.5,0.1,0.8,0.1c0.2,0,0.4,0,0.6-0.1
            c0.2,0,0.4-0.1,0.6-0.2c0.2-0.1,0.3-0.2,0.4-0.4c0.1-0.2,0.2-0.4,0.2-0.6c0-0.4-0.3-0.7-0.8-0.9c-0.5-0.2-1.3-0.4-2.3-0.6
            c-0.4-0.1-0.8-0.2-1.2-0.3c-0.4-0.1-0.7-0.3-1-0.5c-0.3-0.2-0.5-0.4-0.7-0.7c-0.2-0.3-0.3-0.7-0.3-1.1c0-0.6,0.1-1.2,0.4-1.6
            c0.2-0.4,0.6-0.7,1-1c0.4-0.2,0.9-0.4,1.4-0.5c0.5-0.1,1-0.1,1.6-0.1s1.1,0.1,1.6,0.2s1,0.3,1.3,0.5c0.4,0.2,0.7,0.6,1,1
            c0.3,0.4,0.4,0.9,0.5,1.5h-2.6c0-0.5-0.2-0.9-0.6-1.1c-0.4-0.2-0.8-0.3-1.3-0.3c-0.2,0-0.3,0-0.5,0c-0.2,0-0.3,0.1-0.5,0.1
            c-0.1,0.1-0.3,0.2-0.4,0.3c-0.1,0.1-0.2,0.3-0.2,0.5c0,0.2,0.1,0.4,0.3,0.6c0.2,0.2,0.4,0.3,0.7,0.4c0.3,0.1,0.6,0.2,1,0.3
            c0.4,0.1,0.7,0.2,1.1,0.2c0.4,0.1,0.8,0.2,1.2,0.3c0.4,0.1,0.7,0.3,1,0.5c0.3,0.2,0.5,0.5,0.7,0.8c0.2,0.3,0.3,0.7,0.3,1.2
            c0,0.6-0.1,1.2-0.4,1.6c-0.3,0.4-0.6,0.8-1,1.1s-0.9,0.5-1.4,0.6c-0.5,0.1-1.1,0.2-1.7,0.2c-0.6,0-1.1-0.1-1.7-0.2
            c-0.5-0.1-1-0.3-1.5-0.6c-0.4-0.3-0.8-0.6-1-1.1c-0.3-0.4-0.4-1-0.4-1.6h2.6C225,120.6,225.1,120.8,225.2,121z"/>
        <path d="M245.5,109.9l5.1,13.6h-3.1l-1-3h-5.1l-1.1,3h-3l5.2-13.6H245.5z M245.7,118.2l-1.7-5h0l-1.8,5H245.7z"/>
        <path d="M254.1,113.6v1.8h0c0.1-0.3,0.3-0.6,0.5-0.8c0.2-0.3,0.5-0.5,0.7-0.7c0.3-0.2,0.6-0.3,0.9-0.4c0.3-0.1,0.6-0.2,1-0.2
            c0.2,0,0.4,0,0.6,0.1v2.5c-0.1,0-0.3,0-0.5-0.1c-0.2,0-0.4,0-0.5,0c-0.5,0-0.9,0.1-1.3,0.2c-0.3,0.2-0.6,0.4-0.8,0.7
            c-0.2,0.3-0.4,0.6-0.4,1c-0.1,0.4-0.1,0.8-0.1,1.2v4.4h-2.7v-9.9H254.1z"/>
        <path d="M261.5,121.1c0.4,0.4,1,0.6,1.8,0.6c0.5,0,1-0.1,1.4-0.4c0.4-0.3,0.6-0.6,0.7-0.9h2.4c-0.4,1.2-1,2-1.8,2.5
            c-0.8,0.5-1.7,0.8-2.9,0.8c-0.8,0-1.5-0.1-2.1-0.4c-0.6-0.2-1.2-0.6-1.6-1.1c-0.4-0.5-0.8-1-1-1.6c-0.2-0.6-0.4-1.3-0.4-2.1
            c0-0.7,0.1-1.4,0.4-2.1c0.2-0.6,0.6-1.2,1-1.6c0.4-0.5,1-0.8,1.6-1.1c0.6-0.3,1.3-0.4,2.1-0.4c0.8,0,1.6,0.2,2.2,0.5
            c0.6,0.3,1.1,0.8,1.5,1.3c0.4,0.5,0.7,1.2,0.9,1.9c0.2,0.7,0.2,1.4,0.2,2.2h-7.1C260.9,120.1,261.1,120.7,261.5,121.1z
             M264.6,115.9c-0.3-0.4-0.8-0.5-1.5-0.5c-0.4,0-0.8,0.1-1.1,0.2c-0.3,0.1-0.5,0.3-0.7,0.5c-0.2,0.2-0.3,0.4-0.4,0.7
            c-0.1,0.2-0.1,0.5-0.1,0.6h4.4C265.1,116.8,264.9,116.3,264.6,115.9z"/>
        <path d="M281.6,109.9c0.6,0,1.2,0.1,1.8,0.2s1,0.3,1.4,0.6c0.4,0.3,0.7,0.6,0.9,1c0.2,0.4,0.3,1,0.3,1.6c0,0.7-0.2,1.3-0.5,1.7
            c-0.3,0.5-0.8,0.8-1.4,1.1c0.8,0.2,1.5,0.7,1.9,1.3c0.4,0.6,0.6,1.3,0.6,2.2c0,0.7-0.1,1.3-0.4,1.8c-0.3,0.5-0.6,0.9-1.1,1.2
            c-0.5,0.3-1,0.6-1.5,0.7c-0.6,0.2-1.2,0.2-1.8,0.2h-6.6v-13.6H281.6z M281.2,115.4c0.5,0,1-0.1,1.3-0.4c0.3-0.3,0.5-0.7,0.5-1.2
            c0-0.3-0.1-0.6-0.2-0.8c-0.1-0.2-0.3-0.4-0.5-0.5c-0.2-0.1-0.4-0.2-0.7-0.2c-0.2,0-0.5-0.1-0.8-0.1h-2.8v3.2H281.2z M281.3,121.2
            c0.3,0,0.6,0,0.8-0.1c0.3-0.1,0.5-0.2,0.7-0.3c0.2-0.1,0.4-0.3,0.5-0.5c0.1-0.2,0.2-0.5,0.2-0.9c0-0.7-0.2-1.2-0.6-1.5
            c-0.4-0.3-0.9-0.4-1.6-0.4h-3.3v3.7H281.3z"/>
        <path d="M291.2,121.1c0.4,0.4,1,0.6,1.8,0.6c0.5,0,1-0.1,1.4-0.4c0.4-0.3,0.6-0.6,0.7-0.9h2.4c-0.4,1.2-1,2-1.8,2.5
            c-0.8,0.5-1.7,0.8-2.9,0.8c-0.8,0-1.5-0.1-2.1-0.4c-0.6-0.2-1.2-0.6-1.6-1.1c-0.4-0.5-0.8-1-1-1.6c-0.2-0.6-0.4-1.3-0.4-2.1
            c0-0.7,0.1-1.4,0.4-2.1c0.2-0.6,0.6-1.2,1-1.6c0.4-0.5,1-0.8,1.6-1.1c0.6-0.3,1.3-0.4,2.1-0.4c0.8,0,1.6,0.2,2.2,0.5
            c0.6,0.3,1.1,0.8,1.5,1.3c0.4,0.5,0.7,1.2,0.9,1.9c0.2,0.7,0.2,1.4,0.2,2.2h-7.1C290.6,120.1,290.8,120.7,291.2,121.1z
             M294.3,115.9c-0.3-0.4-0.8-0.5-1.5-0.5c-0.4,0-0.8,0.1-1.1,0.2c-0.3,0.1-0.5,0.3-0.7,0.5c-0.2,0.2-0.3,0.4-0.4,0.7
            c-0.1,0.2-0.1,0.5-0.1,0.6h4.4C294.8,116.8,294.6,116.3,294.3,115.9z"/>
        <path d="M304.7,113.6v1.8h-2v4.9c0,0.5,0.1,0.8,0.2,0.9c0.2,0.2,0.5,0.2,0.9,0.2c0.2,0,0.3,0,0.4,0c0.1,0,0.3,0,0.4-0.1v2.1
            c-0.2,0-0.5,0.1-0.8,0.1c-0.3,0-0.6,0-0.8,0c-0.4,0-0.8,0-1.2-0.1c-0.4-0.1-0.7-0.2-1-0.3c-0.3-0.2-0.5-0.4-0.7-0.7
            c-0.2-0.3-0.2-0.7-0.2-1.2v-5.8h-1.6v-1.8h1.6v-3h2.7v3H304.7z"/>
        <path d="M311.4,113.6v1.8h-2v4.9c0,0.5,0.1,0.8,0.2,0.9s0.5,0.2,0.9,0.2c0.2,0,0.3,0,0.4,0c0.1,0,0.3,0,0.4-0.1v2.1
            c-0.2,0-0.5,0.1-0.8,0.1c-0.3,0-0.6,0-0.8,0c-0.4,0-0.8,0-1.2-0.1c-0.4-0.1-0.7-0.2-1-0.3c-0.3-0.2-0.5-0.4-0.7-0.7
            c-0.2-0.3-0.2-0.7-0.2-1.2v-5.8H305v-1.8h1.6v-3h2.7v3H311.4z"/>
        <path d="M315.6,121.1c0.4,0.4,1,0.6,1.8,0.6c0.5,0,1-0.1,1.4-0.4c0.4-0.3,0.6-0.6,0.7-0.9h2.4c-0.4,1.2-1,2-1.8,2.5
            c-0.8,0.5-1.7,0.8-2.9,0.8c-0.8,0-1.5-0.1-2.1-0.4c-0.6-0.2-1.2-0.6-1.6-1.1c-0.4-0.5-0.8-1-1-1.6c-0.2-0.6-0.4-1.3-0.4-2.1
            c0-0.7,0.1-1.4,0.4-2.1c0.2-0.6,0.6-1.2,1-1.6c0.4-0.5,1-0.8,1.6-1.1c0.6-0.3,1.3-0.4,2.1-0.4c0.8,0,1.6,0.2,2.2,0.5
            c0.6,0.3,1.1,0.8,1.5,1.3c0.4,0.5,0.7,1.2,0.9,1.9c0.2,0.7,0.2,1.4,0.2,2.2h-7.1C315,120.1,315.2,120.7,315.6,121.1z M318.6,115.9
            c-0.3-0.4-0.8-0.5-1.5-0.5c-0.4,0-0.8,0.1-1.1,0.2c-0.3,0.1-0.5,0.3-0.7,0.5c-0.2,0.2-0.3,0.4-0.4,0.7c-0.1,0.2-0.1,0.5-0.1,0.6
            h4.4C319.2,116.8,319,116.3,318.6,115.9z"/>
        <path d="M326.2,113.6v1.8h0c0.1-0.3,0.3-0.6,0.5-0.8c0.2-0.3,0.5-0.5,0.7-0.7c0.3-0.2,0.6-0.3,0.9-0.4c0.3-0.1,0.6-0.2,1-0.2
            c0.2,0,0.4,0,0.6,0.1v2.5c-0.1,0-0.3,0-0.5-0.1c-0.2,0-0.4,0-0.5,0c-0.5,0-0.9,0.1-1.3,0.2c-0.3,0.2-0.6,0.4-0.8,0.7
            c-0.2,0.3-0.4,0.6-0.4,1c-0.1,0.4-0.1,0.8-0.1,1.2v4.4h-2.7v-9.9H326.2z"/>
        <path d="M335.6,112.4v-2.5h11.2v2.5h-4.1v11.1h-3v-11.1H335.6z"/>
        <path d="M346,116.4c0.2-0.6,0.6-1.2,1-1.6c0.4-0.5,1-0.8,1.6-1c0.6-0.2,1.3-0.4,2.1-0.4s1.5,0.1,2.1,0.4c0.6,0.2,1.2,0.6,1.6,1
            c0.4,0.5,0.8,1,1,1.6c0.2,0.6,0.4,1.4,0.4,2.1c0,0.8-0.1,1.5-0.4,2.1c-0.2,0.6-0.6,1.2-1,1.6c-0.4,0.5-1,0.8-1.6,1
            c-0.6,0.2-1.3,0.4-2.1,0.4s-1.5-0.1-2.1-0.4c-0.6-0.2-1.2-0.6-1.6-1c-0.4-0.5-0.8-1-1-1.6c-0.2-0.6-0.4-1.3-0.4-2.1
            C345.6,117.8,345.7,117.1,346,116.4z M348.4,119.7c0.1,0.4,0.2,0.7,0.4,1c0.2,0.3,0.4,0.5,0.7,0.7c0.3,0.2,0.7,0.3,1.1,0.3
            s0.8-0.1,1.2-0.3c0.3-0.2,0.6-0.4,0.7-0.7c0.2-0.3,0.3-0.6,0.4-1c0.1-0.4,0.1-0.8,0.1-1.2c0-0.4,0-0.8-0.1-1.2
            c-0.1-0.4-0.2-0.7-0.4-1s-0.4-0.5-0.7-0.7c-0.3-0.2-0.7-0.3-1.2-0.3s-0.8,0.1-1.1,0.3c-0.3,0.2-0.5,0.4-0.7,0.7
            c-0.2,0.3-0.3,0.6-0.4,1c-0.1,0.4-0.1,0.8-0.1,1.2C348.3,119,348.3,119.4,348.4,119.7z"/>
        <path d="M366.9,124.2c-0.1,0.5-0.3,1-0.7,1.4c-0.4,0.4-0.9,0.8-1.5,1.1c-0.7,0.3-1.6,0.5-2.7,0.5c-0.5,0-1-0.1-1.5-0.2
            c-0.5-0.1-1-0.3-1.4-0.6c-0.4-0.3-0.8-0.6-1-1c-0.3-0.4-0.4-0.9-0.5-1.4h2.7c0.1,0.5,0.4,0.9,0.7,1.1c0.4,0.2,0.8,0.3,1.3,0.3
            c0.8,0,1.3-0.2,1.7-0.7c0.3-0.5,0.5-1,0.5-1.7v-1.3h0c-0.3,0.5-0.7,0.9-1.3,1.2c-0.5,0.2-1.1,0.4-1.7,0.4c-0.7,0-1.4-0.1-1.9-0.4
            c-0.5-0.3-1-0.6-1.3-1.1c-0.3-0.5-0.6-1-0.8-1.6c-0.2-0.6-0.2-1.2-0.2-1.9c0-0.6,0.1-1.3,0.3-1.8s0.5-1.1,0.8-1.6
            c0.4-0.5,0.8-0.8,1.3-1.1c0.5-0.3,1.1-0.4,1.8-0.4c0.6,0,1.2,0.1,1.7,0.4c0.5,0.2,0.9,0.6,1.2,1.2h0v-1.3h2.6v9.2
            C367,123.3,367,123.7,366.9,124.2z M363.2,120.9c0.3-0.2,0.5-0.4,0.7-0.6c0.2-0.3,0.3-0.5,0.4-0.9s0.1-0.7,0.1-1
            c0-0.4,0-0.8-0.1-1.2s-0.2-0.7-0.4-1c-0.2-0.3-0.4-0.5-0.7-0.7c-0.3-0.2-0.7-0.2-1.1-0.2c-0.4,0-0.7,0.1-1,0.2
            c-0.3,0.2-0.5,0.4-0.7,0.6c-0.2,0.3-0.3,0.6-0.4,0.9c-0.1,0.3-0.1,0.7-0.1,1.1c0,0.4,0,0.7,0.1,1.1c0.1,0.4,0.2,0.7,0.4,0.9
            c0.2,0.3,0.4,0.5,0.7,0.7c0.3,0.2,0.6,0.3,1,0.3C362.5,121.2,362.9,121.1,363.2,120.9z"/>
        <path d="M372.1,121.1c0.4,0.4,1,0.6,1.8,0.6c0.5,0,1-0.1,1.4-0.4c0.4-0.3,0.6-0.6,0.7-0.9h2.4c-0.4,1.2-1,2-1.8,2.5
            c-0.8,0.5-1.7,0.8-2.9,0.8c-0.8,0-1.5-0.1-2.1-0.4c-0.6-0.2-1.2-0.6-1.6-1.1c-0.4-0.5-0.8-1-1-1.6c-0.2-0.6-0.4-1.3-0.4-2.1
            c0-0.7,0.1-1.4,0.4-2.1c0.2-0.6,0.6-1.2,1-1.6c0.4-0.5,1-0.8,1.6-1.1c0.6-0.3,1.3-0.4,2.1-0.4c0.8,0,1.6,0.2,2.2,0.5
            c0.6,0.3,1.1,0.8,1.5,1.3c0.4,0.5,0.7,1.2,0.9,1.9c0.2,0.7,0.2,1.4,0.2,2.2h-7.1C371.5,120.1,371.7,120.7,372.1,121.1z
             M375.2,115.9c-0.3-0.4-0.8-0.5-1.5-0.5c-0.4,0-0.8,0.1-1.1,0.2c-0.3,0.1-0.5,0.3-0.7,0.5c-0.2,0.2-0.3,0.4-0.4,0.7
            c-0.1,0.2-0.1,0.5-0.1,0.6h4.4C375.7,116.8,375.5,116.3,375.2,115.9z"/>
        <path d="M385.6,113.6v1.8h-2v4.9c0,0.5,0.1,0.8,0.2,0.9c0.2,0.2,0.5,0.2,0.9,0.2c0.2,0,0.3,0,0.4,0c0.1,0,0.3,0,0.4-0.1v2.1
            c-0.2,0-0.5,0.1-0.8,0.1c-0.3,0-0.6,0-0.8,0c-0.4,0-0.8,0-1.2-0.1c-0.4-0.1-0.7-0.2-1-0.3c-0.3-0.2-0.5-0.4-0.7-0.7
            c-0.2-0.3-0.2-0.7-0.2-1.2v-5.8h-1.6v-1.8h1.6v-3h2.7v3H385.6z"/>
        <path d="M389.6,109.9v5.1h0.1c0.3-0.6,0.8-1,1.3-1.2c0.5-0.3,1.1-0.4,1.6-0.4c0.7,0,1.3,0.1,1.8,0.3c0.5,0.2,0.8,0.5,1.1,0.8
            c0.3,0.3,0.5,0.8,0.6,1.3c0.1,0.5,0.2,1.1,0.2,1.7v6.1h-2.7v-5.6c0-0.8-0.1-1.4-0.4-1.8c-0.3-0.4-0.7-0.6-1.4-0.6
            c-0.7,0-1.3,0.2-1.6,0.7c-0.3,0.4-0.5,1.2-0.5,2.2v5.2h-2.7v-13.6H389.6z"/>
        <path d="M401.1,121.1c0.4,0.4,1,0.6,1.8,0.6c0.5,0,1-0.1,1.4-0.4c0.4-0.3,0.6-0.6,0.7-0.9h2.4c-0.4,1.2-1,2-1.8,2.5
            c-0.8,0.5-1.7,0.8-2.9,0.8c-0.8,0-1.5-0.1-2.1-0.4c-0.6-0.2-1.2-0.6-1.6-1.1c-0.4-0.5-0.8-1-1-1.6c-0.2-0.6-0.4-1.3-0.4-2.1
            c0-0.7,0.1-1.4,0.4-2.1c0.2-0.6,0.6-1.2,1-1.6c0.4-0.5,1-0.8,1.6-1.1c0.6-0.3,1.3-0.4,2.1-0.4c0.8,0,1.6,0.2,2.2,0.5
            c0.6,0.3,1.1,0.8,1.5,1.3c0.4,0.5,0.7,1.2,0.9,1.9c0.2,0.7,0.2,1.4,0.2,2.2h-7.1C400.5,120.1,400.7,120.7,401.1,121.1z
             M404.2,115.9c-0.3-0.4-0.8-0.5-1.5-0.5c-0.4,0-0.8,0.1-1.1,0.2c-0.3,0.1-0.5,0.3-0.7,0.5c-0.2,0.2-0.3,0.4-0.4,0.7
            c-0.1,0.2-0.1,0.5-0.1,0.6h4.4C404.7,116.8,404.5,116.3,404.2,115.9z"/>
        <path d="M411.7,113.6v1.8h0c0.1-0.3,0.3-0.6,0.5-0.8c0.2-0.3,0.5-0.5,0.7-0.7c0.3-0.2,0.6-0.3,0.9-0.4s0.6-0.2,1-0.2
            c0.2,0,0.4,0,0.6,0.1v2.5c-0.1,0-0.3,0-0.5-0.1c-0.2,0-0.4,0-0.5,0c-0.5,0-0.9,0.1-1.3,0.2c-0.3,0.2-0.6,0.4-0.8,0.7
            c-0.2,0.3-0.4,0.6-0.4,1c-0.1,0.4-0.1,0.8-0.1,1.2v4.4h-2.7v-9.9H411.7z"/>
    </g>
    <linearGradient id="SVGID_1_" gradientUnits="userSpaceOnUse" x1="30.5941" y1="54.4369" x2="30.5941" y2="127.2223">
        <stop  offset="0.1127" style="stop-color:#212121"/>
        <stop  offset="0.7537" style="stop-color:#9B9B9B"/>
    </linearGradient>
    <path class="st0" d="M46.8,86.8L46.8,86.8c-17.9,0-32.3-14.5-32.3-32.3v72.8h0l0,0v0h32.3V95.7h0c0-0.3,0-0.5,0-0.8V86.8z"/>

        <linearGradient id="SVGID_2_" gradientUnits="userSpaceOnUse" x1="-239.4459" y1="109.3886" x2="-174.7478" y2="109.3886" gradientTransform="matrix(-1 0 0 -1 -128 180)">
        <stop  offset="0.197" style="stop-color:#131313"/>
        <stop  offset="0.3768" style="stop-color:#CFCFCF"/>
        <stop  offset="0.6305" style="stop-color:#9B9B9B"/>
        <stop  offset="0.8873" style="stop-color:#212121"/>
    </linearGradient>
    <path class="st1" d="M46.7,54.4c0,17.9,14.5,32.3,32.3,32.3C79.1,68.9,64.6,54.4,46.7,54.4z"/>
    <linearGradient id="SVGID_3_" gradientUnits="userSpaceOnUse" x1="95.2714" y1="86.7859" x2="95.2714" y2="14.0005">
        <stop  offset="0.1127" style="stop-color:#212121"/>
        <stop  offset="0.7537" style="stop-color:#9B9B9B"/>
    </linearGradient>
    <path class="st2" d="M111.4,14H79.1v31.5h0c0,0.3,0,0.5,0,0.8v8.1h0c12,0,22.4,6.5,28,16.2c2.8,4.8,4.3,10.3,4.3,16.2L111.4,14
        L111.4,14L111.4,14z"/>
    <linearGradient id="SVGID_4_" gradientUnits="userSpaceOnUse" x1="21.8517" y1="75.2893" x2="64.9416" y2="32.1995">
        <stop  offset="0.2463" style="stop-color:#9B9B9B"/>
        <stop  offset="0.8873" style="stop-color:#212121"/>
    </linearGradient>
    <path class="st3" d="M46.7,54.4v-8.1c0-0.3,0-0.5,0-0.8h0V14H14.4v0l0,0h0v40.4v0c0,17.9,14.5,32.3,32.3,32.3h0h32.3
        C61.2,86.8,46.7,72.3,46.7,54.4z"/>
    <linearGradient id="SVGID_5_" gradientUnits="userSpaceOnUse" x1="48.0744" y1="53.1103" x2="116.8162" y2="121.8521">
        <stop  offset="0.1127" style="stop-color:#212121"/>
        <stop  offset="0.7537" style="stop-color:#9B9B9B"/>
    </linearGradient>
    <path class="st4" d="M107.1,70.6c-5.6-9.7-16-16.2-28-16.2h0H46.7c17.9,0,32.3,14.5,32.3,32.3v8.1c0,0.3,0,0.5,0,0.8h0v31.5h32.3v0
        l0,0h0V86.8v0C111.4,80.9,109.9,75.4,107.1,70.6z"/>
    <g>
        <linearGradient id="SVGID_6_" gradientUnits="userSpaceOnUse" x1="153.0261" y1="94.8113" x2="153.0261" y2="13.2581">
            <stop  offset="0" style="stop-color:#9B9B9B"/>
            <stop  offset="1" style="stop-color:#212121"/>
        </linearGradient>
        <path class="st5" d="M174.6,59.9h-32v21.7h37.5V95h-54.2V14H180v13.5h-37.4v19.3h32V59.9z"/>
        <linearGradient id="SVGID_7_" gradientUnits="userSpaceOnUse" x1="215.8949" y1="94.8113" x2="215.8949" y2="13.2581">
            <stop  offset="0" style="stop-color:#9B9B9B"/>
            <stop  offset="1" style="stop-color:#212121"/>
        </linearGradient>
        <path class="st6" d="M206.5,81.6h35.4V95h-52V14h16.7V81.6z"/>
        <linearGradient id="SVGID_8_" gradientUnits="userSpaceOnUse" x1="260.8318" y1="94.8113" x2="260.8318" y2="13.2581">
            <stop  offset="0" style="stop-color:#9B9B9B"/>
            <stop  offset="1" style="stop-color:#212121"/>
        </linearGradient>
        <path class="st7" d="M269.2,95h-16.7V14h16.7V95z"/>
        <linearGradient id="SVGID_9_" gradientUnits="userSpaceOnUse" x1="315.1526" y1="94.8113" x2="315.1526" y2="13.2581">
            <stop  offset="0" style="stop-color:#9B9B9B"/>
            <stop  offset="1" style="stop-color:#212121"/>
        </linearGradient>
        <path class="st8" d="M348,68c-0.6,8.7-3.8,15.6-9.6,20.6c-5.8,5-13.4,7.5-22.9,7.5c-10.4,0-18.5-3.5-24.5-10.5
            c-5.9-7-8.9-16.6-8.9-28.8v-4.9c0-7.8,1.4-14.6,4.1-20.6c2.7-5.9,6.7-10.5,11.7-13.7c5.1-3.2,11-4.8,17.7-4.8
            c9.3,0,16.8,2.5,22.5,7.5c5.7,5,9,12,9.9,21.1h-16.7c-0.4-5.2-1.9-9-4.4-11.4s-6.3-3.5-11.4-3.5c-5.6,0-9.7,2-12.5,6
            c-2.8,4-4.2,10.2-4.2,18.5v6.1c0,8.7,1.3,15.1,4,19.2c2.6,4,6.8,6.1,12.5,6.1c5.1,0,9-1.2,11.5-3.5c2.5-2.4,4-6,4.4-10.9H348z"/>
        <linearGradient id="SVGID_10_" gradientUnits="userSpaceOnUse" x1="386.5975" y1="94.8113" x2="386.5975" y2="13.2581">
            <stop  offset="0" style="stop-color:#9B9B9B"/>
            <stop  offset="1" style="stop-color:#212121"/>
        </linearGradient>
        <path class="st9" d="M400.9,73.7c0-3.2-1.1-5.6-3.3-7.3c-2.2-1.7-6.2-3.5-12-5.3c-5.8-1.9-10.3-3.7-13.7-5.5
            c-9.2-5-13.8-11.7-13.8-20.1c0-4.4,1.2-8.3,3.7-11.7c2.5-3.4,6-6.1,10.6-8s9.8-2.9,15.5-2.9c5.8,0,10.9,1,15.4,3.1
            c4.5,2.1,8,5.1,10.5,8.9c2.5,3.8,3.7,8.2,3.7,13h-16.7c0-3.7-1.2-6.6-3.5-8.6c-2.3-2.1-5.6-3.1-9.8-3.1c-4.1,0-7.2,0.9-9.5,2.6
            c-2.3,1.7-3.4,4-3.4,6.8c0,2.6,1.3,4.8,4,6.6c2.6,1.8,6.5,3.4,11.7,5c9.5,2.9,16.4,6.4,20.7,10.6c4.3,4.2,6.5,9.5,6.5,15.8
            c0,7-2.6,12.5-7.9,16.5c-5.3,4-12.4,6-21.4,6c-6.2,0-11.9-1.1-17-3.4c-5.1-2.3-9-5.4-11.7-9.4c-2.7-4-4-8.6-4-13.8h16.7
            c0,8.9,5.3,13.4,16,13.4c4,0,7.1-0.8,9.3-2.4C399.8,78.9,400.9,76.6,400.9,73.7z"/>
    </g>
</g>
</svg>
