<?xml version="1.0" encoding="utf-8"?>
<!-- Generator: Adobe Illustrator 24.3.0, SVG Export Plug-In . SVG Version: 6.00 Build 0)  -->
<svg version="1.1" id="Layer_1" xmlns="http://www.w3.org/2000/svg" xmlns:xlink="http://www.w3.org/1999/xlink" x="0px" y="0px"
	 viewBox="0 0 576 193.3" style="enable-background:new 0 0 576 193.3;" xml:space="preserve">
<style type="text/css">
	.st0{fill:#202020;}
	.st1{fill:url(#SVGID_1_);}
	.st2{fill:url(#SVGID_2_);}
	.st3{fill:url(#SVGID_3_);}
	.st4{fill:url(#SVGID_4_);}
	.st5{fill:url(#SVGID_5_);}
	.st6{fill:#1D1D1D;}
</style>
<g>
	<g>
		<path class="st0" d="M223.2,147.4c0.2,0.4,0.4,0.7,0.7,0.9c0.3,0.2,0.7,0.4,1.1,0.5c0.4,0.1,0.9,0.2,1.3,0.2c0.3,0,0.6,0,1-0.1
			c0.3-0.1,0.7-0.1,1-0.3c0.3-0.1,0.6-0.3,0.8-0.6c0.2-0.3,0.3-0.6,0.3-1c0-0.4-0.1-0.8-0.4-1c-0.3-0.3-0.6-0.5-1-0.6
			c-0.4-0.2-0.9-0.3-1.5-0.5c-0.5-0.1-1.1-0.3-1.7-0.4c-0.6-0.1-1.1-0.3-1.7-0.5c-0.5-0.2-1-0.5-1.5-0.8c-0.4-0.3-0.8-0.7-1-1.2
			c-0.3-0.5-0.4-1.1-0.4-1.8c0-0.8,0.2-1.5,0.5-2.1c0.3-0.6,0.8-1.1,1.3-1.5c0.5-0.4,1.2-0.7,1.9-0.9c0.7-0.2,1.4-0.3,2.1-0.3
			c0.8,0,1.6,0.1,2.3,0.3c0.7,0.2,1.4,0.5,2,0.9c0.6,0.4,1,0.9,1.4,1.5c0.3,0.6,0.5,1.4,0.5,2.3h-3.3c0-0.5-0.1-0.8-0.3-1.1
			c-0.2-0.3-0.4-0.5-0.7-0.7c-0.3-0.2-0.6-0.3-0.9-0.4c-0.4-0.1-0.7-0.1-1.2-0.1c-0.3,0-0.5,0-0.8,0.1c-0.3,0.1-0.5,0.2-0.7,0.3
			c-0.2,0.1-0.4,0.3-0.6,0.5c-0.1,0.2-0.2,0.5-0.2,0.8c0,0.3,0.1,0.5,0.2,0.7c0.1,0.2,0.3,0.4,0.7,0.5c0.3,0.2,0.8,0.3,1.4,0.5
			c0.6,0.2,1.4,0.4,2.3,0.6c0.3,0.1,0.7,0.2,1.2,0.3c0.5,0.2,1,0.4,1.5,0.7c0.5,0.3,0.9,0.8,1.3,1.3c0.4,0.6,0.6,1.3,0.6,2.1
			c0,0.7-0.1,1.4-0.4,2c-0.3,0.6-0.7,1.1-1.2,1.6c-0.5,0.4-1.2,0.8-2,1c-0.8,0.2-1.7,0.4-2.8,0.4c-0.9,0-1.7-0.1-2.5-0.3
			c-0.8-0.2-1.5-0.5-2.1-1c-0.6-0.4-1.1-1-1.5-1.7c-0.4-0.7-0.5-1.5-0.5-2.5h3.3C222.9,146.6,223,147.1,223.2,147.4z"/>
		<path class="st0" d="M234.4,138.3v-2.5h3.1v2.5H234.4z M237.5,140.1v11.2h-3.1v-11.2H237.5z"/>
		<path class="st0" d="M242.9,140.1v1.5h0c0.4-0.6,0.9-1,1.5-1.3c0.6-0.3,1.2-0.5,2-0.5c0.7,0,1.4,0.1,1.9,0.4
			c0.6,0.3,1,0.8,1.3,1.4c0.3-0.5,0.8-0.9,1.3-1.3c0.6-0.4,1.2-0.6,2-0.6c0.6,0,1.1,0.1,1.6,0.2c0.5,0.1,0.9,0.4,1.3,0.7
			c0.4,0.3,0.6,0.7,0.8,1.2c0.2,0.5,0.3,1.1,0.3,1.8v7.5H254v-6.3c0-0.4,0-0.7,0-1.1c0-0.3-0.1-0.6-0.2-0.9
			c-0.1-0.2-0.3-0.4-0.6-0.6c-0.3-0.1-0.6-0.2-1-0.2c-0.4,0-0.8,0.1-1,0.2c-0.3,0.2-0.5,0.4-0.6,0.6c-0.2,0.3-0.3,0.6-0.3,0.9
			c-0.1,0.3-0.1,0.7-0.1,1v6.2H247V145c0-0.3,0-0.7,0-1c0-0.3-0.1-0.6-0.2-0.9c-0.1-0.3-0.3-0.5-0.5-0.7c-0.3-0.2-0.6-0.2-1.1-0.2
			c-0.1,0-0.3,0-0.6,0.1c-0.2,0.1-0.5,0.2-0.7,0.4c-0.2,0.2-0.4,0.4-0.6,0.8c-0.2,0.3-0.2,0.8-0.2,1.3v6.5H240v-11.2H242.9z"/>
		<path class="st0" d="M267.1,151.2v-1.6H267c-0.4,0.6-0.9,1.1-1.5,1.4c-0.6,0.3-1.3,0.4-1.9,0.4c-0.8,0-1.5-0.1-2-0.3
			c-0.5-0.2-0.9-0.5-1.2-0.9c-0.3-0.4-0.5-0.9-0.6-1.4c-0.1-0.6-0.2-1.2-0.2-1.9v-6.9h3.1v6.3c0,0.9,0.1,1.6,0.4,2.1
			c0.3,0.5,0.8,0.7,1.5,0.7c0.8,0,1.4-0.2,1.8-0.7c0.4-0.5,0.6-1.3,0.6-2.5v-5.9h3.1v11.2H267.1z"/>
		<path class="st0" d="M275.5,135.8v15.4h-3.1v-15.4H275.5z"/>
		<path class="st0" d="M277.8,143.5c0-0.7,0.2-1.3,0.5-1.8c0.3-0.5,0.7-0.9,1.2-1.1c0.5-0.3,1-0.5,1.7-0.6c0.6-0.1,1.2-0.2,1.8-0.2
			c0.6,0,1.1,0,1.7,0.1c0.6,0.1,1.1,0.2,1.6,0.5c0.5,0.2,0.9,0.6,1.2,1c0.3,0.4,0.5,1,0.5,1.6v5.8c0,0.5,0,1,0.1,1.4
			c0.1,0.5,0.2,0.8,0.3,1h-3.1c-0.1-0.2-0.1-0.3-0.1-0.5c0-0.2-0.1-0.4-0.1-0.6c-0.5,0.5-1.1,0.9-1.7,1.1c-0.7,0.2-1.3,0.3-2,0.3
			c-0.5,0-1-0.1-1.5-0.2c-0.5-0.1-0.9-0.3-1.2-0.6c-0.3-0.3-0.6-0.6-0.8-1c-0.2-0.4-0.3-0.9-0.3-1.5c0-0.6,0.1-1.2,0.3-1.6
			c0.2-0.4,0.5-0.7,0.9-1c0.4-0.2,0.8-0.4,1.2-0.6c0.5-0.1,0.9-0.2,1.4-0.3c0.5-0.1,0.9-0.1,1.4-0.2c0.4,0,0.8-0.1,1.2-0.2
			c0.3-0.1,0.6-0.2,0.8-0.4c0.2-0.2,0.3-0.4,0.3-0.7c0-0.3-0.1-0.6-0.2-0.8s-0.3-0.3-0.4-0.5c-0.2-0.1-0.4-0.2-0.6-0.2
			c-0.2,0-0.5-0.1-0.8-0.1c-0.6,0-1.1,0.1-1.4,0.4s-0.5,0.7-0.6,1.3H277.8z M284.8,145.8c-0.1,0.1-0.3,0.2-0.5,0.3
			c-0.2,0.1-0.4,0.1-0.6,0.2c-0.2,0-0.5,0.1-0.7,0.1c-0.2,0-0.5,0.1-0.7,0.1c-0.2,0-0.5,0.1-0.7,0.2c-0.2,0.1-0.4,0.2-0.6,0.3
			c-0.2,0.1-0.3,0.3-0.4,0.5c-0.1,0.2-0.1,0.4-0.1,0.7c0,0.3,0,0.5,0.1,0.7c0.1,0.2,0.2,0.3,0.4,0.4c0.2,0.1,0.4,0.2,0.6,0.2
			c0.2,0,0.5,0.1,0.7,0.1c0.6,0,1.1-0.1,1.4-0.3c0.3-0.2,0.6-0.4,0.7-0.7c0.2-0.3,0.3-0.6,0.3-0.9c0-0.3,0.1-0.5,0.1-0.7V145.8z"/>
		<path class="st0" d="M296.4,140.1v2.1h-2.2v5.5c0,0.5,0.1,0.9,0.3,1c0.2,0.2,0.5,0.3,1,0.3c0.2,0,0.3,0,0.5,0c0.2,0,0.3,0,0.5-0.1
			v2.4c-0.3,0-0.5,0.1-0.9,0.1c-0.3,0-0.6,0-0.9,0c-0.5,0-0.9,0-1.4-0.1c-0.4-0.1-0.8-0.2-1.1-0.4c-0.3-0.2-0.6-0.5-0.8-0.8
			c-0.2-0.3-0.3-0.8-0.3-1.4v-6.6h-1.9v-2.1h1.9v-3.4h3.1v3.4H296.4z"/>
		<path class="st0" d="M298,138.3v-2.5h3.1v2.5H298z M301.1,140.1v11.2H298v-11.2H301.1z"/>
		<path class="st0" d="M303.5,143.2c0.3-0.7,0.7-1.3,1.2-1.9c0.5-0.5,1.1-0.9,1.8-1.2c0.7-0.3,1.5-0.4,2.4-0.4s1.7,0.1,2.4,0.4
			s1.3,0.7,1.8,1.2c0.5,0.5,0.9,1.1,1.2,1.9c0.3,0.7,0.4,1.5,0.4,2.4c0,0.9-0.1,1.7-0.4,2.4c-0.3,0.7-0.7,1.3-1.2,1.8
			c-0.5,0.5-1.1,0.9-1.8,1.2c-0.7,0.3-1.5,0.4-2.4,0.4s-1.7-0.1-2.4-0.4c-0.7-0.3-1.3-0.7-1.8-1.2c-0.5-0.5-0.9-1.1-1.2-1.8
			c-0.3-0.7-0.4-1.5-0.4-2.4C303.1,144.8,303.3,144,303.5,143.2z M306.3,147c0.1,0.4,0.2,0.8,0.4,1.1c0.2,0.3,0.5,0.6,0.8,0.8
			c0.3,0.2,0.8,0.3,1.3,0.3s1-0.1,1.3-0.3c0.4-0.2,0.6-0.5,0.8-0.8c0.2-0.3,0.4-0.7,0.4-1.1c0.1-0.4,0.1-0.9,0.1-1.3
			c0-0.4,0-0.9-0.1-1.3c-0.1-0.4-0.2-0.8-0.4-1.1c-0.2-0.3-0.5-0.6-0.8-0.8c-0.4-0.2-0.8-0.3-1.3-0.3s-1,0.1-1.3,0.3
			c-0.3,0.2-0.6,0.5-0.8,0.8c-0.2,0.3-0.4,0.7-0.4,1.1c-0.1,0.4-0.1,0.9-0.1,1.3C306.2,146.1,306.2,146.5,306.3,147z"/>
		<path class="st0" d="M319.6,140.1v1.6h0.1c0.4-0.6,0.9-1.1,1.5-1.4c0.6-0.3,1.3-0.4,1.9-0.4c0.8,0,1.5,0.1,2,0.3
			c0.5,0.2,0.9,0.5,1.2,0.9c0.3,0.4,0.5,0.9,0.6,1.4c0.1,0.6,0.2,1.2,0.2,1.9v6.9h-3.1v-6.3c0-0.9-0.1-1.6-0.4-2.1
			c-0.3-0.5-0.8-0.7-1.5-0.7c-0.8,0-1.4,0.2-1.8,0.7c-0.4,0.5-0.6,1.3-0.6,2.5v5.9h-3.1v-11.2H319.6z"/>
		<path class="st0" d="M332.1,148.5c0.1,0.2,0.3,0.4,0.5,0.6s0.5,0.3,0.7,0.3c0.3,0.1,0.6,0.1,0.9,0.1c0.2,0,0.4,0,0.7-0.1
			c0.2-0.1,0.5-0.1,0.6-0.2s0.4-0.3,0.5-0.4c0.1-0.2,0.2-0.4,0.2-0.7c0-0.5-0.3-0.8-0.9-1c-0.6-0.2-1.5-0.5-2.6-0.7
			c-0.4-0.1-0.9-0.2-1.3-0.4c-0.4-0.1-0.8-0.3-1.1-0.5c-0.3-0.2-0.6-0.5-0.8-0.8c-0.2-0.3-0.3-0.8-0.3-1.2c0-0.7,0.1-1.3,0.4-1.8
			c0.3-0.5,0.7-0.8,1.1-1.1c0.5-0.3,1-0.5,1.6-0.6c0.6-0.1,1.2-0.2,1.8-0.2c0.6,0,1.2,0.1,1.8,0.2c0.6,0.1,1.1,0.3,1.5,0.6
			c0.4,0.3,0.8,0.6,1.1,1.1c0.3,0.5,0.5,1,0.5,1.7h-2.9c0-0.6-0.3-1-0.7-1.2c-0.4-0.2-0.9-0.3-1.4-0.3c-0.2,0-0.4,0-0.6,0
			c-0.2,0-0.4,0.1-0.6,0.1c-0.2,0.1-0.3,0.2-0.4,0.3c-0.1,0.1-0.2,0.3-0.2,0.6c0,0.3,0.1,0.5,0.3,0.7c0.2,0.2,0.5,0.3,0.8,0.4
			c0.3,0.1,0.7,0.2,1.1,0.3c0.4,0.1,0.8,0.2,1.3,0.3c0.4,0.1,0.9,0.2,1.3,0.4c0.4,0.1,0.8,0.3,1.1,0.6c0.3,0.2,0.6,0.5,0.8,0.9
			c0.2,0.4,0.3,0.8,0.3,1.3c0,0.7-0.1,1.4-0.4,1.8c-0.3,0.5-0.7,0.9-1.2,1.2c-0.5,0.3-1,0.5-1.6,0.6s-1.2,0.2-1.9,0.2
			c-0.6,0-1.3-0.1-1.9-0.2c-0.6-0.1-1.2-0.3-1.7-0.6c-0.5-0.3-0.9-0.7-1.2-1.2c-0.3-0.5-0.5-1.1-0.5-1.9h2.9
			C331.9,147.9,331.9,148.2,332.1,148.5z"/>
		<path class="st0" d="M355.1,135.8l5.8,15.4h-3.5l-1.2-3.4h-5.8l-1.2,3.4h-3.4l5.8-15.4H355.1z M355.3,145.3l-1.9-5.7h0l-2,5.7
			H355.3z"/>
		<path class="st0" d="M364.8,140.1v2.1h0c0.1-0.3,0.3-0.7,0.6-1c0.2-0.3,0.5-0.5,0.8-0.8c0.3-0.2,0.7-0.4,1-0.5
			c0.4-0.1,0.7-0.2,1.1-0.2c0.2,0,0.4,0,0.7,0.1v2.9c-0.1,0-0.3-0.1-0.5-0.1s-0.4,0-0.6,0c-0.6,0-1,0.1-1.4,0.3
			c-0.4,0.2-0.7,0.4-0.9,0.8c-0.2,0.3-0.4,0.7-0.5,1.1c-0.1,0.4-0.2,0.9-0.2,1.4v5h-3.1v-11.2H364.8z"/>
		<path class="st0" d="M373.2,148.6c0.5,0.4,1.1,0.7,2,0.7c0.6,0,1.2-0.2,1.6-0.5c0.4-0.3,0.7-0.6,0.8-1h2.7c-0.4,1.3-1.1,2.3-2,2.9
			c-0.9,0.6-2,0.9-3.2,0.9c-0.9,0-1.7-0.1-2.4-0.4c-0.7-0.3-1.3-0.7-1.8-1.2c-0.5-0.5-0.9-1.1-1.1-1.9c-0.3-0.7-0.4-1.5-0.4-2.4
			c0-0.8,0.1-1.6,0.4-2.3c0.3-0.7,0.7-1.3,1.2-1.9c0.5-0.5,1.1-0.9,1.8-1.2c0.7-0.3,1.5-0.5,2.3-0.5c1,0,1.8,0.2,2.5,0.6
			c0.7,0.4,1.3,0.9,1.7,1.5c0.5,0.6,0.8,1.3,1,2.1c0.2,0.8,0.3,1.6,0.2,2.5h-8.1C372.5,147.4,372.8,148.1,373.2,148.6z M376.7,142.7
			c-0.4-0.4-0.9-0.6-1.7-0.6c-0.5,0-0.9,0.1-1.2,0.2c-0.3,0.2-0.6,0.4-0.8,0.6c-0.2,0.2-0.3,0.5-0.4,0.8c-0.1,0.3-0.1,0.5-0.1,0.7h5
			C377.3,143.7,377.1,143.1,376.7,142.7z"/>
		<path class="st0" d="M395.9,135.8c0.7,0,1.4,0.1,2,0.2c0.6,0.1,1.1,0.3,1.6,0.6c0.4,0.3,0.8,0.7,1,1.2c0.2,0.5,0.4,1.1,0.4,1.8
			c0,0.8-0.2,1.4-0.5,1.9c-0.4,0.5-0.9,0.9-1.6,1.3c0.9,0.3,1.7,0.8,2.1,1.4c0.5,0.7,0.7,1.5,0.7,2.5c0,0.8-0.2,1.5-0.5,2
			c-0.3,0.6-0.7,1-1.2,1.4c-0.5,0.4-1.1,0.6-1.7,0.8c-0.7,0.2-1.3,0.3-2,0.3h-7.5v-15.4H395.9z M395.5,142c0.6,0,1.1-0.1,1.5-0.4
			c0.4-0.3,0.6-0.8,0.6-1.4c0-0.4-0.1-0.7-0.2-0.9c-0.1-0.2-0.3-0.4-0.5-0.5c-0.2-0.1-0.5-0.2-0.7-0.3c-0.3-0.1-0.6-0.1-0.9-0.1
			h-3.2v3.6H395.5z M395.7,148.6c0.3,0,0.6,0,1-0.1c0.3-0.1,0.6-0.2,0.8-0.3c0.2-0.2,0.4-0.4,0.6-0.6c0.1-0.3,0.2-0.6,0.2-1
			c0-0.8-0.2-1.4-0.7-1.7c-0.4-0.3-1-0.5-1.8-0.5h-3.7v4.2H395.7z"/>
		<path class="st0" d="M406.9,148.6c0.5,0.4,1.1,0.7,2,0.7c0.6,0,1.2-0.2,1.6-0.5c0.4-0.3,0.7-0.6,0.8-1h2.7c-0.4,1.3-1.1,2.3-2,2.9
			c-0.9,0.6-2,0.9-3.2,0.9c-0.9,0-1.7-0.1-2.4-0.4c-0.7-0.3-1.3-0.7-1.8-1.2c-0.5-0.5-0.9-1.1-1.1-1.9c-0.3-0.7-0.4-1.5-0.4-2.4
			c0-0.8,0.1-1.6,0.4-2.3c0.3-0.7,0.7-1.3,1.2-1.9c0.5-0.5,1.1-0.9,1.8-1.2c0.7-0.3,1.5-0.5,2.3-0.5c1,0,1.8,0.2,2.5,0.6
			c0.7,0.4,1.3,0.9,1.7,1.5c0.5,0.6,0.8,1.3,1,2.1c0.2,0.8,0.3,1.6,0.2,2.5h-8.1C406.2,147.4,406.4,148.1,406.9,148.6z M410.3,142.7
			c-0.4-0.4-0.9-0.6-1.7-0.6c-0.5,0-0.9,0.1-1.2,0.2c-0.3,0.2-0.6,0.4-0.8,0.6c-0.2,0.2-0.3,0.5-0.4,0.8c-0.1,0.3-0.1,0.5-0.1,0.7h5
			C411,143.7,410.7,143.1,410.3,142.7z"/>
		<path class="st0" d="M422.1,140.1v2.1h-2.2v5.5c0,0.5,0.1,0.9,0.3,1c0.2,0.2,0.5,0.3,1,0.3c0.2,0,0.3,0,0.5,0c0.2,0,0.3,0,0.5-0.1
			v2.4c-0.3,0-0.5,0.1-0.9,0.1c-0.3,0-0.6,0-0.9,0c-0.5,0-0.9,0-1.4-0.1c-0.4-0.1-0.8-0.2-1.1-0.4c-0.3-0.2-0.6-0.5-0.8-0.8
			c-0.2-0.3-0.3-0.8-0.3-1.4v-6.6H415v-2.1h1.9v-3.4h3.1v3.4H422.1z"/>
		<path class="st0" d="M429.7,140.1v2.1h-2.2v5.5c0,0.5,0.1,0.9,0.3,1s0.5,0.3,1,0.3c0.2,0,0.3,0,0.5,0c0.2,0,0.3,0,0.5-0.1v2.4
			c-0.3,0-0.5,0.1-0.9,0.1c-0.3,0-0.6,0-0.9,0c-0.5,0-0.9,0-1.4-0.1c-0.4-0.1-0.8-0.2-1.1-0.4c-0.3-0.2-0.6-0.5-0.8-0.8
			c-0.2-0.3-0.3-0.8-0.3-1.4v-6.6h-1.9v-2.1h1.9v-3.4h3.1v3.4H429.7z"/>
		<path class="st0" d="M434.5,148.6c0.5,0.4,1.1,0.7,2,0.7c0.6,0,1.2-0.2,1.6-0.5c0.4-0.3,0.7-0.6,0.8-1h2.7c-0.4,1.3-1.1,2.3-2,2.9
			c-0.9,0.6-2,0.9-3.2,0.9c-0.9,0-1.7-0.1-2.4-0.4c-0.7-0.3-1.3-0.7-1.8-1.2c-0.5-0.5-0.9-1.1-1.1-1.9c-0.3-0.7-0.4-1.5-0.4-2.4
			c0-0.8,0.1-1.6,0.4-2.3c0.3-0.7,0.7-1.3,1.2-1.9c0.5-0.5,1.1-0.9,1.8-1.2c0.7-0.3,1.5-0.5,2.3-0.5c1,0,1.8,0.2,2.5,0.6
			c0.7,0.4,1.3,0.9,1.7,1.5c0.5,0.6,0.8,1.3,1,2.1c0.2,0.8,0.3,1.6,0.2,2.5h-8.1C433.8,147.4,434,148.1,434.5,148.6z M438,142.7
			c-0.4-0.4-0.9-0.6-1.7-0.6c-0.5,0-0.9,0.1-1.2,0.2c-0.3,0.2-0.6,0.4-0.8,0.6c-0.2,0.2-0.3,0.5-0.4,0.8c-0.1,0.3-0.1,0.5-0.1,0.7h5
			C438.6,143.7,438.3,143.1,438,142.7z"/>
		<path class="st0" d="M446.5,140.1v2.1h0c0.1-0.3,0.3-0.7,0.6-1c0.2-0.3,0.5-0.5,0.8-0.8c0.3-0.2,0.7-0.4,1-0.5
			c0.4-0.1,0.7-0.2,1.1-0.2c0.2,0,0.4,0,0.7,0.1v2.9c-0.1,0-0.3-0.1-0.5-0.1s-0.4,0-0.6,0c-0.6,0-1,0.1-1.4,0.3
			c-0.4,0.2-0.7,0.4-0.9,0.8c-0.2,0.3-0.4,0.7-0.5,1.1c-0.1,0.4-0.2,0.9-0.2,1.4v5h-3.1v-11.2H446.5z"/>
		<path class="st0" d="M457.1,138.7v-2.9h12.6v2.9h-4.6v12.6h-3.4v-12.6H457.1z"/>
		<path class="st0" d="M468.9,143.2c0.3-0.7,0.7-1.3,1.2-1.9c0.5-0.5,1.1-0.9,1.8-1.2c0.7-0.3,1.5-0.4,2.4-0.4s1.7,0.1,2.4,0.4
			c0.7,0.3,1.3,0.7,1.8,1.2c0.5,0.5,0.9,1.1,1.2,1.9c0.3,0.7,0.4,1.5,0.4,2.4c0,0.9-0.1,1.7-0.4,2.4c-0.3,0.7-0.7,1.3-1.2,1.8
			c-0.5,0.5-1.1,0.9-1.8,1.2c-0.7,0.3-1.5,0.4-2.4,0.4s-1.7-0.1-2.4-0.4c-0.7-0.3-1.3-0.7-1.8-1.2c-0.5-0.5-0.9-1.1-1.2-1.8
			c-0.3-0.7-0.4-1.5-0.4-2.4C468.5,144.8,468.6,144,468.9,143.2z M471.7,147c0.1,0.4,0.2,0.8,0.4,1.1c0.2,0.3,0.5,0.6,0.8,0.8
			c0.3,0.2,0.8,0.3,1.3,0.3s1-0.1,1.3-0.3c0.4-0.2,0.6-0.5,0.8-0.8c0.2-0.3,0.4-0.7,0.4-1.1c0.1-0.4,0.1-0.9,0.1-1.3
			c0-0.4,0-0.9-0.1-1.3c-0.1-0.4-0.2-0.8-0.4-1.1c-0.2-0.3-0.5-0.6-0.8-0.8c-0.4-0.2-0.8-0.3-1.3-0.3s-1,0.1-1.3,0.3
			c-0.3,0.2-0.6,0.5-0.8,0.8c-0.2,0.3-0.4,0.7-0.4,1.1c-0.1,0.4-0.1,0.9-0.1,1.3C471.6,146.1,471.6,146.5,471.7,147z"/>
		<path class="st0" d="M492.6,152.1c-0.1,0.6-0.4,1.1-0.8,1.6c-0.4,0.5-1,0.9-1.8,1.3c-0.8,0.3-1.8,0.5-3.1,0.5
			c-0.5,0-1.1-0.1-1.7-0.2c-0.6-0.1-1.1-0.4-1.6-0.6c-0.5-0.3-0.9-0.7-1.2-1.1c-0.3-0.5-0.5-1-0.5-1.6h3c0.1,0.6,0.4,1,0.8,1.2
			c0.4,0.2,0.9,0.3,1.4,0.3c0.9,0,1.5-0.3,1.9-0.8c0.4-0.5,0.6-1.2,0.6-2v-1.5h0c-0.3,0.6-0.8,1-1.4,1.3s-1.3,0.4-1.9,0.4
			c-0.8,0-1.6-0.1-2.2-0.4c-0.6-0.3-1.1-0.7-1.5-1.2c-0.4-0.5-0.7-1.1-0.9-1.8c-0.2-0.7-0.3-1.4-0.3-2.2c0-0.7,0.1-1.4,0.3-2.1
			c0.2-0.7,0.5-1.3,0.9-1.8c0.4-0.5,0.9-0.9,1.5-1.2c0.6-0.3,1.3-0.5,2.1-0.5c0.7,0,1.4,0.1,1.9,0.4c0.6,0.3,1,0.7,1.4,1.4h0v-1.5
			h2.9v10.5C492.8,151,492.7,151.5,492.6,152.1z M488.4,148.3c0.3-0.2,0.6-0.4,0.8-0.7s0.4-0.6,0.5-1s0.2-0.8,0.2-1.2
			c0-0.5,0-0.9-0.1-1.3c-0.1-0.4-0.2-0.8-0.4-1.1c-0.2-0.3-0.5-0.6-0.8-0.8c-0.3-0.2-0.7-0.3-1.3-0.3c-0.4,0-0.8,0.1-1.1,0.3
			c-0.3,0.2-0.6,0.4-0.8,0.7c-0.2,0.3-0.4,0.6-0.5,1c-0.1,0.4-0.1,0.8-0.1,1.2c0,0.4,0,0.8,0.1,1.2c0.1,0.4,0.2,0.8,0.4,1.1
			c0.2,0.3,0.5,0.6,0.8,0.8c0.3,0.2,0.7,0.3,1.2,0.3C487.7,148.6,488.1,148.5,488.4,148.3z"/>
		<path class="st0" d="M498.5,148.6c0.5,0.4,1.1,0.7,2,0.7c0.6,0,1.2-0.2,1.6-0.5c0.4-0.3,0.7-0.6,0.8-1h2.7c-0.4,1.3-1.1,2.3-2,2.9
			c-0.9,0.6-2,0.9-3.2,0.9c-0.9,0-1.7-0.1-2.4-0.4c-0.7-0.3-1.3-0.7-1.8-1.2c-0.5-0.5-0.9-1.1-1.1-1.9c-0.3-0.7-0.4-1.5-0.4-2.4
			c0-0.8,0.1-1.6,0.4-2.3c0.3-0.7,0.7-1.3,1.2-1.9c0.5-0.5,1.1-0.9,1.8-1.2c0.7-0.3,1.5-0.5,2.3-0.5c1,0,1.8,0.2,2.5,0.6
			s1.3,0.9,1.7,1.5c0.5,0.6,0.8,1.3,1,2.1c0.2,0.8,0.3,1.6,0.2,2.5h-8.1C497.8,147.4,498.1,148.1,498.5,148.6z M502,142.7
			c-0.4-0.4-0.9-0.6-1.7-0.6c-0.5,0-0.9,0.1-1.2,0.2c-0.3,0.2-0.6,0.4-0.8,0.6c-0.2,0.2-0.3,0.5-0.4,0.8c-0.1,0.3-0.1,0.5-0.1,0.7h5
			C502.6,143.7,502.4,143.1,502,142.7z"/>
		<path class="st0" d="M513.8,140.1v2.1h-2.2v5.5c0,0.5,0.1,0.9,0.3,1s0.5,0.3,1,0.3c0.2,0,0.3,0,0.5,0c0.2,0,0.3,0,0.5-0.1v2.4
			c-0.3,0-0.5,0.1-0.9,0.1c-0.3,0-0.6,0-0.9,0c-0.5,0-0.9,0-1.4-0.1c-0.4-0.1-0.8-0.2-1.1-0.4c-0.3-0.2-0.6-0.5-0.8-0.8
			c-0.2-0.3-0.3-0.8-0.3-1.4v-6.6h-1.9v-2.1h1.9v-3.4h3.1v3.4H513.8z"/>
		<path class="st0" d="M518.3,135.8v5.8h0.1c0.4-0.6,0.9-1.1,1.5-1.4c0.6-0.3,1.2-0.4,1.8-0.4c0.8,0,1.5,0.1,2,0.3
			c0.5,0.2,0.9,0.5,1.2,0.9c0.3,0.4,0.5,0.9,0.6,1.4c0.1,0.6,0.2,1.2,0.2,1.9v6.9h-3.1v-6.3c0-0.9-0.1-1.6-0.4-2.1
			c-0.3-0.5-0.8-0.7-1.5-0.7c-0.8,0-1.4,0.2-1.8,0.7c-0.4,0.5-0.6,1.3-0.6,2.5v5.9h-3.1v-15.4H518.3z"/>
		<path class="st0" d="M531.4,148.6c0.5,0.4,1.1,0.7,2,0.7c0.6,0,1.2-0.2,1.6-0.5c0.4-0.3,0.7-0.6,0.8-1h2.7c-0.4,1.3-1.1,2.3-2,2.9
			c-0.9,0.6-2,0.9-3.2,0.9c-0.9,0-1.7-0.1-2.4-0.4c-0.7-0.3-1.3-0.7-1.8-1.2c-0.5-0.5-0.9-1.1-1.1-1.9c-0.3-0.7-0.4-1.5-0.4-2.4
			c0-0.8,0.1-1.6,0.4-2.3c0.3-0.7,0.7-1.3,1.2-1.9c0.5-0.5,1.1-0.9,1.8-1.2c0.7-0.3,1.5-0.5,2.3-0.5c1,0,1.8,0.2,2.5,0.6
			c0.7,0.4,1.3,0.9,1.7,1.5c0.5,0.6,0.8,1.3,1,2.1c0.2,0.8,0.3,1.6,0.2,2.5h-8.1C530.7,147.4,530.9,148.1,531.4,148.6z M534.8,142.7
			c-0.4-0.4-0.9-0.6-1.7-0.6c-0.5,0-0.9,0.1-1.2,0.2c-0.3,0.2-0.6,0.4-0.8,0.6c-0.2,0.2-0.3,0.5-0.4,0.8c-0.1,0.3-0.1,0.5-0.1,0.7h5
			C535.5,143.7,535.2,143.1,534.8,142.7z"/>
		<path class="st0" d="M543.4,140.1v2.1h0c0.1-0.3,0.3-0.7,0.6-1c0.2-0.3,0.5-0.5,0.8-0.8c0.3-0.2,0.7-0.4,1-0.5
			c0.4-0.1,0.7-0.2,1.1-0.2c0.2,0,0.4,0,0.7,0.1v2.9c-0.1,0-0.3-0.1-0.5-0.1c-0.2,0-0.4,0-0.6,0c-0.6,0-1,0.1-1.4,0.3
			c-0.4,0.2-0.7,0.4-0.9,0.8s-0.4,0.7-0.5,1.1c-0.1,0.4-0.2,0.9-0.2,1.4v5h-3.1v-11.2H543.4z"/>
	</g>
	<path class="st0" d="M188.4,177.7c-0.6,0-1.2-0.4-1.2-1V16.6c0-0.5,0.5-1,1.2-1c0.6,0,1.2,0.4,1.2,1v160.2
		C189.6,177.3,189,177.7,188.4,177.7z"/>
	<g>
		<linearGradient id="SVGID_1_" gradientUnits="userSpaceOnUse" x1="44.7915" y1="73.4929" x2="44.7915" y2="177.7186">
			<stop  offset="0.1127" style="stop-color:#474747"/>
			<stop  offset="0.7537" style="stop-color:#737373"/>
		</linearGradient>
		<path class="st1" d="M68,119.8L68,119.8c-25.6,0-46.3-20.7-46.3-46.3v104.2h0l0,0v0h46.3v-45.2h0c0-0.4,0-0.8,0-1.2V119.8z"/>
		
			<linearGradient id="SVGID_2_" gradientUnits="userSpaceOnUse" x1="-144.5682" y1="135.4747" x2="-51.923" y2="135.4747" gradientTransform="matrix(-1 0 0 -1 16 232.1288)">
			<stop  offset="0.197" style="stop-color:#3E3E3E"/>
			<stop  offset="0.3768" style="stop-color:#BFBFBF"/>
			<stop  offset="0.6305" style="stop-color:#737373"/>
			<stop  offset="0.8873" style="stop-color:#474747"/>
		</linearGradient>
		<path class="st2" d="M67.9,73.5c0,25.6,20.7,46.3,46.3,46.3C114.2,94.2,93.5,73.5,67.9,73.5z"/>
		<linearGradient id="SVGID_3_" gradientUnits="userSpaceOnUse" x1="137.4069" y1="119.8154" x2="137.4069" y2="15.5895">
			<stop  offset="0.1127" style="stop-color:#474747"/>
			<stop  offset="0.7537" style="stop-color:#737373"/>
		</linearGradient>
		<path class="st3" d="M160.6,15.6h-46.3v45.2h0c0,0.4,0,0.8,0,1.2v11.6h0c17.1,0,32.1,9.3,40.1,23.2c3.9,6.8,6.2,14.7,6.2,23.2
			L160.6,15.6L160.6,15.6L160.6,15.6z"/>
		<linearGradient id="SVGID_4_" gradientUnits="userSpaceOnUse" x1="32.2728" y1="103.3527" x2="93.9758" y2="41.6497">
			<stop  offset="0.2463" style="stop-color:#737373"/>
			<stop  offset="0.8873" style="stop-color:#474747"/>
		</linearGradient>
		<path class="st4" d="M67.9,73.5V61.9c0-0.4,0-0.8,0-1.2h0V15.6H21.6v0l0,0h0v57.9v0c0,25.6,20.7,46.3,46.3,46.3h0h46.3
			C88.7,119.8,67.9,99.1,67.9,73.5z"/>
		<linearGradient id="SVGID_5_" gradientUnits="userSpaceOnUse" x1="69.8226" y1="71.5931" x2="168.2582" y2="170.0287">
			<stop  offset="0.1127" style="stop-color:#474747"/>
			<stop  offset="0.7537" style="stop-color:#737373"/>
		</linearGradient>
		<path class="st5" d="M154.4,96.7c-8-13.8-23-23.2-40.1-23.2h0H67.9c25.6,0,46.3,20.7,46.3,46.3v11.6c0,0.4,0,0.8,0,1.2h0v45.2
			h46.3v0l0,0h0v-57.9v0C160.6,111.4,158.3,103.5,154.4,96.7z"/>
	</g>
	<g>
		<path class="st6" d="M278.8,120h-15V88.9h-29.2V120h-15V47.3h15v29.5h29.2V47.3h15V120z"/>
		<path class="st6" d="M335.7,88.5h-28.8V108h33.8v12h-48.8V47.3h48.7v12.1h-33.7v17.3h28.8V88.5z"/>
		<path class="st6" d="M364.5,108h31.8v12h-46.8V47.3h15V108z"/>
		<path class="st6" d="M420.8,120h-15V47.3h15V120z"/>
		<path class="st6" d="M491.8,95.8c-0.6,7.8-3.5,14-8.7,18.5c-5.2,4.5-12.1,6.7-20.6,6.7c-9.3,0-16.7-3.1-22-9.4
			c-5.3-6.3-8-14.9-8-25.9v-4.4c0-7,1.2-13.2,3.7-18.5c2.5-5.3,6-9.4,10.6-12.3c4.6-2.8,9.9-4.3,16-4.3c8.4,0,15.2,2.2,20.3,6.7
			c5.1,4.5,8.1,10.8,8.9,18.9h-15c-0.4-4.7-1.7-8.1-3.9-10.2s-5.7-3.2-10.3-3.2c-5,0-8.7,1.8-11.2,5.4c-2.5,3.6-3.8,9.1-3.8,16.7
			v5.5c0,7.9,1.2,13.6,3.6,17.2c2.4,3.6,6.1,5.4,11.3,5.4c4.6,0,8.1-1.1,10.4-3.2c2.3-2.1,3.6-5.4,3.9-9.8H491.8z"/>
		<path class="st6" d="M539.4,100.9c0-2.8-1-5-3-6.5c-2-1.5-5.6-3.1-10.8-4.8c-5.2-1.7-9.3-3.3-12.3-5c-8.3-4.5-12.4-10.5-12.4-18
			c0-3.9,1.1-7.4,3.3-10.5c2.2-3.1,5.4-5.5,9.5-7.2c4.1-1.7,8.8-2.6,14-2.6c5.2,0,9.8,0.9,13.9,2.8c4.1,1.9,7.2,4.5,9.5,8
			c2.2,3.4,3.4,7.3,3.4,11.7h-15c0-3.3-1-5.9-3.1-7.8c-2.1-1.8-5-2.8-8.8-2.8c-3.7,0-6.5,0.8-8.5,2.3s-3,3.6-3,6.1
			c0,2.4,1.2,4.3,3.6,5.9c2.4,1.6,5.9,3.1,10.5,4.5c8.5,2.6,14.7,5.7,18.6,9.5c3.9,3.8,5.8,8.5,5.8,14.2c0,6.3-2.4,11.2-7.1,14.8
			c-4.8,3.6-11.2,5.4-19.2,5.4c-5.6,0-10.7-1-15.3-3.1c-4.6-2-8.1-4.9-10.5-8.4c-2.4-3.6-3.6-7.7-3.6-12.4h15c0,8,4.8,12,14.4,12
			c3.6,0,6.3-0.7,8.3-2.2S539.4,103.5,539.4,100.9z"/>
	</g>
</g>
</svg>
