<?xml version="1.0" encoding="utf-8"?>
<!-- Generator: Adobe Illustrator 24.2.3, SVG Export Plug-In . SVG Version: 6.00 Build 0)  -->
<svg version="1.1" id="Layer_1" xmlns="http://www.w3.org/2000/svg" xmlns:xlink="http://www.w3.org/1999/xlink" x="0px" y="0px"
	 viewBox="0 0 432 432" style="enable-background:new 0 0 432 432;" xml:space="preserve">
<style type="text/css">
	.st0{fill:#1D1D1D;}
	.st1{fill:url(#SVGID_1_);}
	.st2{fill:url(#SVGID_2_);}
	.st3{fill:url(#SVGID_3_);}
	.st4{fill:url(#SVGID_4_);}
	.st5{fill:url(#SVGID_5_);}
	.st6{fill:#FFFFFF;}
</style>
<rect x="0.1" y="0" class="st0" width="432" height="432"/>
<g>
	<linearGradient id="SVGID_1_" gradientUnits="userSpaceOnUse" x1="360.7645" y1="246.7812" x2="360.7645" y2="24.6733">
		<stop  offset="0.1127" style="stop-color:#235075"/>
		<stop  offset="0.7537" style="stop-color:#0C96D0"/>
	</linearGradient>
	<path class="st1" d="M408.3,24.7h-95v96.3h0c0,0.8-0.1,1.6-0.1,2.5v24.7h0c35.2,0,65.8,19.9,82.3,49.4
		c8.1,14.5,12.7,31.4,12.7,49.4L408.3,24.7L408.3,24.7L408.3,24.7z"/>
	<g>
		<linearGradient id="SVGID_2_" gradientUnits="userSpaceOnUse" x1="170.8236" y1="148.0668" x2="170.8236" y2="370.1745">
			<stop  offset="0.1127" style="stop-color:#235075"/>
			<stop  offset="0.7537" style="stop-color:#0C96D0"/>
		</linearGradient>
		<path class="st2" d="M218.3,246.8L218.3,246.8c-52.5,0-95-44.2-95-98.7v222.1h0l0,0v0h95v-96.3h0c0-0.8,0.1-1.6,0.1-2.5V246.8z"/>
		
			<linearGradient id="SVGID_3_" gradientUnits="userSpaceOnUse" x1="-536.265" y1="274.576" x2="-346.263" y2="274.576" gradientTransform="matrix(-1 0 0 -1 -128 472)">
			<stop  offset="0.197" style="stop-color:#144A71"/>
			<stop  offset="0.3768" style="stop-color:#ADC5D1"/>
			<stop  offset="0.6305" style="stop-color:#0C96D0"/>
			<stop  offset="0.8873" style="stop-color:#235075"/>
		</linearGradient>
		<path class="st3" d="M218.3,148.1c0,54.5,42.5,98.7,95,98.7C313.3,192.3,270.7,148.1,218.3,148.1z"/>
		<linearGradient id="SVGID_4_" gradientUnits="userSpaceOnUse" x1="143.5918" y1="210.3984" x2="273.7824" y2="80.2078">
			<stop  offset="0.2463" style="stop-color:#0C96D0"/>
			<stop  offset="0.8873" style="stop-color:#235075"/>
		</linearGradient>
		<path class="st4" d="M218.3,148.1v-24.7c0-0.8,0-1.6-0.1-2.5h0V24.7h-95v0l0,0h0v123.4v0c0,54.5,42.5,98.7,95,98.7h0h95
			C260.8,246.8,218.3,202.6,218.3,148.1z"/>
		<linearGradient id="SVGID_5_" gradientUnits="userSpaceOnUse" x1="219.8044" y1="146.5251" x2="425.8594" y2="352.5801">
			<stop  offset="0.1127" style="stop-color:#235075"/>
			<stop  offset="0.7537" style="stop-color:#0C96D0"/>
		</linearGradient>
		<path class="st5" d="M395.5,197.4c-16.4-29.5-47.1-49.4-82.3-49.4h0h-95c52.5,0,95,44.2,95,98.7v24.7c0,0.8,0,1.6,0.1,2.5h0v96.3
			h95v0l0,0h0V246.8v0C408.3,228.8,403.6,211.9,395.5,197.4z"/>
	</g>
</g>
<g>
	<g>
		<path class="st6" d="M28.3,401.6c0.2,0.4,0.5,0.8,0.9,1.1c0.4,0.3,0.8,0.5,1.3,0.6c0.5,0.1,1,0.2,1.5,0.2c0.4,0,0.7,0,1.1-0.1
			c0.4-0.1,0.8-0.2,1.1-0.4c0.4-0.2,0.6-0.4,0.9-0.7c0.2-0.3,0.4-0.7,0.4-1.2c0-0.5-0.2-0.9-0.5-1.2c-0.3-0.3-0.7-0.6-1.2-0.8
			c-0.5-0.2-1.1-0.4-1.7-0.5c-0.6-0.2-1.3-0.3-1.9-0.5c-0.7-0.2-1.3-0.4-2-0.6c-0.6-0.3-1.2-0.6-1.7-1s-0.9-0.9-1.2-1.5
			c-0.3-0.6-0.5-1.3-0.5-2.2c0-1,0.2-1.8,0.6-2.5c0.4-0.7,0.9-1.3,1.5-1.8c0.6-0.5,1.4-0.8,2.2-1c0.8-0.2,1.6-0.3,2.4-0.3
			c0.9,0,1.8,0.1,2.7,0.3c0.9,0.2,1.6,0.6,2.3,1.1c0.7,0.5,1.2,1.1,1.6,1.9c0.4,0.8,0.6,1.7,0.6,2.8h-3.8c0-0.6-0.1-1-0.3-1.4
			c-0.2-0.4-0.4-0.7-0.8-0.9c-0.3-0.2-0.7-0.4-1.1-0.4c-0.4-0.1-0.9-0.1-1.3-0.1c-0.3,0-0.6,0-1,0.1c-0.3,0.1-0.6,0.2-0.9,0.4
			c-0.3,0.2-0.5,0.4-0.6,0.7c-0.2,0.3-0.3,0.6-0.3,1c0,0.4,0.1,0.7,0.2,0.9c0.1,0.2,0.4,0.4,0.8,0.6c0.4,0.2,0.9,0.4,1.6,0.6
			c0.7,0.2,1.6,0.4,2.7,0.7c0.3,0.1,0.8,0.2,1.4,0.4c0.6,0.2,1.2,0.5,1.8,0.9c0.6,0.4,1.1,0.9,1.5,1.6c0.4,0.7,0.6,1.5,0.6,2.6
			c0,0.9-0.2,1.6-0.5,2.4c-0.3,0.7-0.8,1.4-1.4,1.9c-0.6,0.5-1.4,0.9-2.3,1.2s-2,0.4-3.2,0.4c-1,0-1.9-0.1-2.9-0.4
			c-0.9-0.3-1.8-0.6-2.5-1.2c-0.7-0.5-1.3-1.2-1.7-2.1c-0.4-0.8-0.6-1.8-0.6-3H28C28,400.7,28.1,401.2,28.3,401.6z"/>
		<path class="st6" d="M41.3,390.6v-3.1h3.6v3.1H41.3z M44.9,392.7v13.5h-3.6v-13.5H44.9z"/>
		<path class="st6" d="M51.2,392.7v1.8h0.1c0.5-0.7,1-1.2,1.7-1.6c0.7-0.4,1.4-0.6,2.3-0.6c0.8,0,1.6,0.2,2.3,0.5
			c0.7,0.3,1.2,0.9,1.5,1.7c0.4-0.6,0.9-1.1,1.6-1.6c0.7-0.5,1.4-0.7,2.4-0.7c0.7,0,1.3,0.1,1.9,0.3c0.6,0.2,1.1,0.5,1.5,0.8
			c0.4,0.4,0.7,0.9,1,1.5c0.2,0.6,0.4,1.4,0.4,2.2v9h-3.6v-7.7c0-0.5,0-0.9-0.1-1.3c0-0.4-0.1-0.7-0.3-1c-0.2-0.3-0.4-0.5-0.7-0.7
			c-0.3-0.2-0.7-0.3-1.2-0.3c-0.5,0-0.9,0.1-1.2,0.3c-0.3,0.2-0.6,0.5-0.7,0.8c-0.2,0.3-0.3,0.7-0.4,1.1c-0.1,0.4-0.1,0.8-0.1,1.2
			v7.5H56v-7.6c0-0.4,0-0.8,0-1.2c0-0.4-0.1-0.8-0.2-1.1c-0.1-0.3-0.3-0.6-0.6-0.8c-0.3-0.2-0.7-0.3-1.3-0.3c-0.2,0-0.4,0-0.7,0.1
			c-0.3,0.1-0.5,0.2-0.8,0.4c-0.3,0.2-0.5,0.5-0.7,0.9c-0.2,0.4-0.3,0.9-0.3,1.6v7.8h-3.6v-13.5H51.2z"/>
		<path class="st6" d="M79.3,406.2v-1.9h-0.1c-0.5,0.8-1,1.4-1.8,1.7c-0.7,0.3-1.5,0.5-2.2,0.5c-1,0-1.7-0.1-2.3-0.4
			c-0.6-0.3-1.1-0.6-1.4-1.1c-0.4-0.5-0.6-1.1-0.7-1.7c-0.1-0.7-0.2-1.5-0.2-2.3v-8.3h3.6v7.6c0,1.1,0.2,1.9,0.5,2.5
			c0.3,0.5,0.9,0.8,1.8,0.8c1,0,1.7-0.3,2.1-0.9c0.4-0.6,0.7-1.6,0.7-3v-7.1h3.6v13.5H79.3z"/>
		<path class="st6" d="M89.1,387.6v18.7h-3.6v-18.7H89.1z"/>
		<path class="st6" d="M91.7,396.9c0.1-0.9,0.3-1.6,0.6-2.2c0.4-0.6,0.8-1,1.4-1.4c0.6-0.3,1.2-0.6,1.9-0.7c0.7-0.1,1.4-0.2,2.2-0.2
			c0.7,0,1.3,0,2,0.1c0.7,0.1,1.3,0.3,1.8,0.6c0.6,0.3,1,0.7,1.4,1.2c0.4,0.5,0.5,1.2,0.5,2v7c0,0.6,0,1.2,0.1,1.7
			c0.1,0.6,0.2,1,0.4,1.3h-3.6c-0.1-0.2-0.1-0.4-0.2-0.6c0-0.2-0.1-0.4-0.1-0.7c-0.6,0.6-1.2,1-2,1.3c-0.8,0.2-1.6,0.4-2.4,0.4
			c-0.6,0-1.2-0.1-1.7-0.2c-0.5-0.2-1-0.4-1.4-0.7c-0.4-0.3-0.7-0.7-0.9-1.3c-0.2-0.5-0.3-1.1-0.3-1.8c0-0.8,0.1-1.4,0.4-1.9
			c0.3-0.5,0.6-0.9,1-1.2c0.4-0.3,0.9-0.5,1.4-0.7c0.5-0.1,1.1-0.3,1.6-0.4c0.5-0.1,1.1-0.2,1.6-0.2c0.5-0.1,1-0.1,1.4-0.2
			s0.7-0.3,1-0.5s0.3-0.5,0.3-0.9c0-0.4-0.1-0.7-0.2-1c-0.1-0.2-0.3-0.4-0.5-0.5c-0.2-0.1-0.5-0.2-0.7-0.3c-0.3,0-0.6-0.1-0.9-0.1
			c-0.7,0-1.3,0.2-1.7,0.5s-0.6,0.8-0.7,1.6H91.7z M100,399.6c-0.2,0.1-0.3,0.2-0.6,0.3c-0.2,0.1-0.5,0.1-0.7,0.2
			c-0.3,0.1-0.5,0.1-0.8,0.1c-0.3,0-0.6,0.1-0.9,0.1c-0.3,0.1-0.5,0.1-0.8,0.2c-0.3,0.1-0.5,0.2-0.7,0.4c-0.2,0.1-0.3,0.3-0.5,0.6
			c-0.1,0.2-0.2,0.5-0.2,0.9c0,0.3,0.1,0.6,0.2,0.8c0.1,0.2,0.3,0.4,0.5,0.5c0.2,0.1,0.4,0.2,0.7,0.3c0.3,0.1,0.5,0.1,0.8,0.1
			c0.7,0,1.2-0.1,1.6-0.4c0.4-0.2,0.7-0.5,0.9-0.9c0.2-0.3,0.3-0.7,0.3-1c0-0.3,0.1-0.6,0.1-0.8V399.6z"/>
		<path class="st6" d="M113.5,392.7v2.5h-2.6v6.7c0,0.6,0.1,1,0.3,1.3c0.2,0.2,0.6,0.3,1.2,0.3c0.2,0,0.4,0,0.6,0
			c0.2,0,0.4,0,0.5-0.1v2.9c-0.3,0.1-0.6,0.1-1,0.1c-0.4,0-0.7,0-1.1,0c-0.6,0-1.1,0-1.6-0.1c-0.5-0.1-0.9-0.2-1.3-0.5
			c-0.4-0.2-0.7-0.5-0.9-1c-0.2-0.4-0.3-1-0.3-1.6v-8h-2.2v-2.5h2.2v-4.1h3.6v4.1H113.5z"/>
		<path class="st6" d="M115.3,390.6v-3.1h3.6v3.1H115.3z M118.9,392.7v13.5h-3.6v-13.5H118.9z"/>
		<path class="st6" d="M121.8,396.5c0.3-0.9,0.8-1.6,1.4-2.2c0.6-0.6,1.3-1.1,2.1-1.4c0.8-0.3,1.7-0.5,2.8-0.5s1.9,0.2,2.8,0.5
			c0.8,0.3,1.5,0.8,2.1,1.4c0.6,0.6,1,1.4,1.4,2.2c0.3,0.9,0.5,1.9,0.5,2.9c0,1.1-0.2,2.1-0.5,2.9c-0.3,0.9-0.8,1.6-1.4,2.2
			c-0.6,0.6-1.3,1.1-2.1,1.4c-0.8,0.3-1.8,0.5-2.8,0.5s-1.9-0.2-2.8-0.5c-0.8-0.3-1.5-0.8-2.1-1.4c-0.6-0.6-1-1.4-1.4-2.2
			c-0.3-0.9-0.5-1.8-0.5-2.9C121.3,398.4,121.4,397.4,121.8,396.5z M125,401.1c0.1,0.5,0.3,1,0.5,1.4c0.2,0.4,0.6,0.7,1,1
			c0.4,0.2,0.9,0.4,1.5,0.4c0.6,0,1.1-0.1,1.5-0.4c0.4-0.2,0.7-0.6,1-1c0.2-0.4,0.4-0.9,0.5-1.4c0.1-0.5,0.2-1,0.2-1.6
			c0-0.5-0.1-1.1-0.2-1.6c-0.1-0.5-0.3-1-0.5-1.4c-0.2-0.4-0.6-0.7-1-1c-0.4-0.3-0.9-0.4-1.5-0.4c-0.6,0-1.1,0.1-1.5,0.4
			c-0.4,0.3-0.7,0.6-1,1c-0.2,0.4-0.4,0.9-0.5,1.4c-0.1,0.5-0.1,1.1-0.1,1.6C124.8,400,124.9,400.6,125,401.1z"/>
		<path class="st6" d="M140.4,392.7v1.9h0.1c0.5-0.8,1-1.4,1.8-1.7c0.7-0.4,1.5-0.5,2.2-0.5c1,0,1.7,0.1,2.4,0.4
			c0.6,0.3,1.1,0.6,1.4,1.1c0.4,0.5,0.6,1.1,0.7,1.7c0.1,0.7,0.2,1.5,0.2,2.3v8.3h-3.6v-7.6c0-1.1-0.2-1.9-0.5-2.5
			c-0.3-0.5-0.9-0.8-1.8-0.8c-1,0-1.7,0.3-2.1,0.9c-0.4,0.6-0.7,1.6-0.7,3v7.1H137v-13.5H140.4z"/>
		<path class="st6" d="M155,402.9c0.2,0.3,0.4,0.5,0.6,0.7s0.5,0.3,0.9,0.4c0.3,0.1,0.7,0.1,1,0.1c0.3,0,0.5,0,0.8-0.1
			c0.3-0.1,0.5-0.2,0.8-0.3c0.2-0.1,0.4-0.3,0.6-0.5c0.2-0.2,0.2-0.5,0.2-0.8c0-0.6-0.4-1-1.1-1.3c-0.7-0.3-1.7-0.6-3-0.8
			c-0.5-0.1-1-0.3-1.5-0.4c-0.5-0.2-0.9-0.4-1.3-0.7c-0.4-0.3-0.7-0.6-0.9-1c-0.2-0.4-0.4-0.9-0.4-1.5c0-0.9,0.2-1.6,0.5-2.1
			c0.3-0.6,0.8-1,1.3-1.3c0.5-0.3,1.1-0.5,1.8-0.7c0.7-0.1,1.4-0.2,2.1-0.2s1.4,0.1,2.1,0.2c0.7,0.1,1.3,0.4,1.8,0.7
			c0.5,0.3,0.9,0.8,1.3,1.3c0.3,0.5,0.5,1.2,0.6,2.1h-3.4c-0.1-0.7-0.3-1.2-0.8-1.5c-0.5-0.3-1-0.4-1.7-0.4c-0.2,0-0.4,0-0.7,0
			c-0.2,0-0.4,0.1-0.6,0.2c-0.2,0.1-0.4,0.2-0.5,0.4c-0.1,0.2-0.2,0.4-0.2,0.7c0,0.3,0.1,0.6,0.4,0.8c0.2,0.2,0.5,0.4,0.9,0.5
			s0.8,0.2,1.3,0.4c0.5,0.1,1,0.2,1.5,0.3c0.5,0.1,1,0.3,1.5,0.4c0.5,0.2,0.9,0.4,1.3,0.7c0.4,0.3,0.7,0.6,0.9,1.1
			c0.2,0.4,0.4,1,0.4,1.6c0,0.9-0.2,1.6-0.5,2.2c-0.3,0.6-0.8,1.1-1.3,1.5c-0.6,0.4-1.2,0.6-1.9,0.8c-0.7,0.1-1.4,0.2-2.2,0.2
			c-0.8,0-1.5-0.1-2.2-0.2c-0.7-0.2-1.4-0.4-1.9-0.8c-0.6-0.4-1-0.8-1.4-1.5c-0.4-0.6-0.6-1.4-0.6-2.3h3.4
			C154.7,402.2,154.8,402.6,155,402.9z"/>
		<path class="st6" d="M181.8,387.6l6.7,18.7h-4.1l-1.4-4.2h-6.7l-1.4,4.2h-4l6.8-18.7H181.8z M182,399l-2.3-6.8h-0.1l-2.3,6.8H182z
			"/>
		<path class="st6" d="M193.1,392.7v2.5h0.1c0.2-0.4,0.4-0.8,0.7-1.2c0.3-0.4,0.6-0.7,1-0.9c0.4-0.3,0.8-0.4,1.2-0.6
			c0.4-0.1,0.9-0.2,1.3-0.2c0.2,0,0.5,0,0.8,0.1v3.4c-0.2,0-0.4-0.1-0.6-0.1c-0.2,0-0.5,0-0.7,0c-0.7,0-1.2,0.1-1.7,0.3
			c-0.5,0.2-0.8,0.5-1.1,0.9c-0.3,0.4-0.5,0.8-0.6,1.4c-0.1,0.5-0.2,1.1-0.2,1.7v6.1h-3.6v-13.5H193.1z"/>
		<path class="st6" d="M202.8,403c0.5,0.5,1.3,0.8,2.3,0.8c0.7,0,1.3-0.2,1.9-0.6c0.5-0.4,0.8-0.8,1-1.2h3.1
			c-0.5,1.6-1.3,2.8-2.3,3.5c-1,0.7-2.3,1-3.8,1c-1,0-1.9-0.2-2.8-0.5c-0.8-0.3-1.5-0.8-2.1-1.5c-0.6-0.6-1-1.4-1.3-2.2
			c-0.3-0.9-0.5-1.8-0.5-2.9c0-1,0.2-2,0.5-2.8c0.3-0.9,0.8-1.6,1.4-2.3c0.6-0.6,1.3-1.1,2.1-1.5c0.8-0.4,1.7-0.5,2.7-0.5
			c1.1,0,2.1,0.2,2.9,0.7c0.8,0.4,1.5,1,2,1.8c0.5,0.7,0.9,1.6,1.1,2.6c0.2,1,0.3,2,0.2,3H202C202,401.6,202.3,402.5,202.8,403z
			 M206.9,395.9c-0.4-0.5-1.1-0.7-1.9-0.7c-0.6,0-1,0.1-1.4,0.3c-0.4,0.2-0.7,0.4-0.9,0.7c-0.2,0.3-0.4,0.6-0.5,0.9
			c-0.1,0.3-0.1,0.6-0.2,0.9h5.8C207.6,397.1,207.3,396.4,206.9,395.9z"/>
		<path class="st6" d="M229.3,387.6c0.9,0,1.6,0.1,2.3,0.2s1.3,0.4,1.8,0.8c0.5,0.4,0.9,0.8,1.2,1.4c0.3,0.6,0.4,1.3,0.4,2.2
			c0,0.9-0.2,1.7-0.6,2.4c-0.4,0.6-1,1.1-1.8,1.5c1.1,0.3,1.9,0.9,2.5,1.7c0.5,0.8,0.8,1.8,0.8,3c0,0.9-0.2,1.8-0.5,2.4
			s-0.8,1.2-1.4,1.7c-0.6,0.4-1.3,0.8-2,1c-0.8,0.2-1.5,0.3-2.4,0.3h-8.7v-18.7H229.3z M228.8,395.1c0.7,0,1.3-0.2,1.7-0.5
			c0.5-0.3,0.7-0.9,0.7-1.7c0-0.4-0.1-0.8-0.2-1.1c-0.2-0.3-0.4-0.5-0.6-0.7s-0.5-0.3-0.9-0.3c-0.3-0.1-0.7-0.1-1-0.1h-3.7v4.4
			H228.8z M229,403c0.4,0,0.8,0,1.1-0.1c0.4-0.1,0.7-0.2,0.9-0.4c0.3-0.2,0.5-0.4,0.6-0.7c0.2-0.3,0.2-0.7,0.2-1.2
			c0-1-0.3-1.6-0.8-2.1c-0.5-0.4-1.2-0.6-2.1-0.6h-4.3v5.1H229z"/>
		<path class="st6" d="M242,403c0.5,0.5,1.3,0.8,2.3,0.8c0.7,0,1.3-0.2,1.9-0.6c0.5-0.4,0.8-0.8,1-1.2h3.1c-0.5,1.6-1.3,2.8-2.3,3.5
			c-1,0.7-2.3,1-3.8,1c-1,0-1.9-0.2-2.8-0.5c-0.8-0.3-1.5-0.8-2.1-1.5c-0.6-0.6-1-1.4-1.3-2.2c-0.3-0.9-0.5-1.8-0.5-2.9
			c0-1,0.2-2,0.5-2.8c0.3-0.9,0.8-1.6,1.4-2.3c0.6-0.6,1.3-1.1,2.1-1.5c0.8-0.4,1.7-0.5,2.7-0.5c1.1,0,2.1,0.2,2.9,0.7
			c0.8,0.4,1.5,1,2,1.8c0.5,0.7,0.9,1.6,1.1,2.6c0.2,1,0.3,2,0.2,3h-9.4C241.1,401.6,241.4,402.5,242,403z M246,395.9
			c-0.4-0.5-1.1-0.7-1.9-0.7c-0.6,0-1,0.1-1.4,0.3c-0.4,0.2-0.7,0.4-0.9,0.7c-0.2,0.3-0.4,0.6-0.5,0.9c-0.1,0.3-0.1,0.6-0.2,0.9h5.8
			C246.7,397.1,246.4,396.4,246,395.9z"/>
		<path class="st6" d="M259.7,392.7v2.5h-2.6v6.7c0,0.6,0.1,1,0.3,1.3c0.2,0.2,0.6,0.3,1.2,0.3c0.2,0,0.4,0,0.6,0
			c0.2,0,0.4,0,0.5-0.1v2.9c-0.3,0.1-0.6,0.1-1,0.1c-0.4,0-0.7,0-1.1,0c-0.6,0-1.1,0-1.6-0.1c-0.5-0.1-0.9-0.2-1.3-0.5
			c-0.4-0.2-0.7-0.5-0.9-1c-0.2-0.4-0.3-1-0.3-1.6v-8h-2.2v-2.5h2.2v-4.1h3.6v4.1H259.7z"/>
		<path class="st6" d="M268.6,392.7v2.5H266v6.7c0,0.6,0.1,1,0.3,1.3c0.2,0.2,0.6,0.3,1.2,0.3c0.2,0,0.4,0,0.6,0
			c0.2,0,0.4,0,0.5-0.1v2.9c-0.3,0.1-0.6,0.1-1,0.1c-0.4,0-0.7,0-1.1,0c-0.6,0-1.1,0-1.6-0.1c-0.5-0.1-0.9-0.2-1.3-0.5
			c-0.4-0.2-0.7-0.5-0.9-1c-0.2-0.4-0.3-1-0.3-1.6v-8h-2.2v-2.5h2.2v-4.1h3.6v4.1H268.6z"/>
		<path class="st6" d="M274.1,403c0.5,0.5,1.3,0.8,2.3,0.8c0.7,0,1.3-0.2,1.9-0.6c0.5-0.4,0.8-0.8,1-1.2h3.1
			c-0.5,1.6-1.3,2.8-2.3,3.5c-1,0.7-2.3,1-3.8,1c-1,0-1.9-0.2-2.8-0.5c-0.8-0.3-1.5-0.8-2.1-1.5c-0.6-0.6-1-1.4-1.3-2.2
			c-0.3-0.9-0.5-1.8-0.5-2.9c0-1,0.2-2,0.5-2.8c0.3-0.9,0.8-1.6,1.4-2.3c0.6-0.6,1.3-1.1,2.1-1.5c0.8-0.4,1.7-0.5,2.7-0.5
			c1.1,0,2.1,0.2,2.9,0.7c0.8,0.4,1.5,1,2,1.8c0.5,0.7,0.9,1.6,1.1,2.6c0.2,1,0.3,2,0.2,3h-9.4C273.3,401.6,273.6,402.5,274.1,403z
			 M278.1,395.9c-0.4-0.5-1.1-0.7-1.9-0.7c-0.6,0-1,0.1-1.4,0.3c-0.4,0.2-0.7,0.4-0.9,0.7c-0.2,0.3-0.4,0.6-0.5,0.9
			c-0.1,0.3-0.1,0.6-0.2,0.9h5.8C278.9,397.1,278.6,396.4,278.1,395.9z"/>
		<path class="st6" d="M288.1,392.7v2.5h0.1c0.2-0.4,0.4-0.8,0.7-1.2c0.3-0.4,0.6-0.7,1-0.9c0.4-0.3,0.8-0.4,1.2-0.6
			c0.4-0.1,0.9-0.2,1.3-0.2c0.2,0,0.5,0,0.8,0.1v3.4c-0.2,0-0.4-0.1-0.6-0.1c-0.2,0-0.5,0-0.7,0c-0.7,0-1.2,0.1-1.7,0.3
			c-0.5,0.2-0.8,0.5-1.1,0.9c-0.3,0.4-0.5,0.8-0.6,1.4c-0.1,0.5-0.2,1.1-0.2,1.7v6.1h-3.6v-13.5H288.1z"/>
		<path class="st6" d="M300.5,391v-3.4h14.7v3.4h-5.4v15.2h-3.9V391H300.5z"/>
		<path class="st6" d="M314.1,396.5c0.3-0.9,0.8-1.6,1.4-2.2c0.6-0.6,1.3-1.1,2.1-1.4c0.8-0.3,1.7-0.5,2.8-0.5c1,0,1.9,0.2,2.8,0.5
			c0.8,0.3,1.5,0.8,2.1,1.4c0.6,0.6,1,1.4,1.4,2.2c0.3,0.9,0.5,1.9,0.5,2.9c0,1.1-0.2,2.1-0.5,2.9c-0.3,0.9-0.8,1.6-1.4,2.2
			c-0.6,0.6-1.3,1.1-2.1,1.4c-0.8,0.3-1.8,0.5-2.8,0.5c-1,0-1.9-0.2-2.8-0.5c-0.8-0.3-1.5-0.8-2.1-1.4c-0.6-0.6-1-1.4-1.4-2.2
			c-0.3-0.9-0.5-1.8-0.5-2.9C313.7,398.4,313.8,397.4,314.1,396.5z M317.4,401.1c0.1,0.5,0.3,1,0.5,1.4c0.2,0.4,0.6,0.7,1,1
			c0.4,0.2,0.9,0.4,1.5,0.4c0.6,0,1.1-0.1,1.5-0.4c0.4-0.2,0.7-0.6,1-1c0.2-0.4,0.4-0.9,0.5-1.4c0.1-0.5,0.2-1,0.2-1.6
			c0-0.5-0.1-1.1-0.2-1.6c-0.1-0.5-0.3-1-0.5-1.4c-0.2-0.4-0.6-0.7-1-1c-0.4-0.3-0.9-0.4-1.5-0.4c-0.6,0-1.1,0.1-1.5,0.4
			c-0.4,0.3-0.7,0.6-1,1c-0.2,0.4-0.4,0.9-0.5,1.4c-0.1,0.5-0.1,1.1-0.1,1.6C317.2,400,317.3,400.6,317.4,401.1z"/>
		<path class="st6" d="M341.7,407.2c-0.1,0.7-0.4,1.3-0.9,1.9c-0.5,0.6-1.2,1.1-2,1.5c-0.9,0.4-2.1,0.6-3.6,0.6
			c-0.6,0-1.3-0.1-1.9-0.2c-0.7-0.2-1.3-0.4-1.8-0.8c-0.5-0.3-1-0.8-1.4-1.3c-0.4-0.5-0.6-1.2-0.6-2h3.5c0.2,0.7,0.5,1.2,1,1.5
			c0.5,0.3,1,0.4,1.7,0.4c1,0,1.7-0.3,2.2-0.9c0.5-0.6,0.7-1.4,0.7-2.4v-1.8h-0.1c-0.4,0.7-0.9,1.2-1.6,1.6
			c-0.7,0.3-1.5,0.5-2.3,0.5c-1,0-1.8-0.2-2.5-0.5c-0.7-0.4-1.3-0.8-1.7-1.5c-0.5-0.6-0.8-1.3-1-2.2c-0.2-0.8-0.3-1.7-0.3-2.6
			c0-0.9,0.1-1.7,0.4-2.5c0.2-0.8,0.6-1.5,1.1-2.1c0.5-0.6,1.1-1.1,1.7-1.5c0.7-0.4,1.5-0.5,2.4-0.5c0.9,0,1.6,0.2,2.3,0.5
			s1.2,0.9,1.6,1.7h0.1v-1.8h3.4v12.6C341.9,405.9,341.9,406.5,341.7,407.2z M336.8,402.7c0.4-0.2,0.7-0.5,1-0.8
			c0.3-0.3,0.4-0.7,0.6-1.2c0.1-0.4,0.2-0.9,0.2-1.4c0-0.6-0.1-1.1-0.2-1.6c-0.1-0.5-0.3-0.9-0.5-1.3c-0.2-0.4-0.5-0.7-0.9-0.9
			c-0.4-0.2-0.9-0.3-1.5-0.3c-0.5,0-0.9,0.1-1.3,0.3c-0.4,0.2-0.7,0.5-0.9,0.8c-0.2,0.4-0.4,0.8-0.5,1.2c-0.1,0.5-0.2,0.9-0.2,1.5
			c0,0.5,0,1,0.1,1.4c0.1,0.5,0.3,0.9,0.5,1.3c0.2,0.4,0.5,0.7,0.9,0.9c0.4,0.2,0.8,0.4,1.4,0.4C336,403,336.4,402.9,336.8,402.7z"
			/>
		<path class="st6" d="M348.6,403c0.5,0.5,1.3,0.8,2.3,0.8c0.7,0,1.3-0.2,1.9-0.6c0.5-0.4,0.8-0.8,1-1.2h3.1
			c-0.5,1.6-1.3,2.8-2.3,3.5c-1,0.7-2.3,1-3.8,1c-1,0-1.9-0.2-2.8-0.5c-0.8-0.3-1.5-0.8-2.1-1.5c-0.6-0.6-1-1.4-1.3-2.2
			c-0.3-0.9-0.5-1.8-0.5-2.9c0-1,0.2-2,0.5-2.8c0.3-0.9,0.8-1.6,1.4-2.3c0.6-0.6,1.3-1.1,2.1-1.5c0.8-0.4,1.7-0.5,2.7-0.5
			c1.1,0,2.1,0.2,2.9,0.7c0.8,0.4,1.5,1,2,1.8c0.5,0.7,0.9,1.6,1.1,2.6c0.2,1,0.3,2,0.2,3h-9.4C347.8,401.6,348.1,402.5,348.6,403z
			 M352.6,395.9c-0.4-0.5-1.1-0.7-1.9-0.7c-0.6,0-1,0.1-1.4,0.3c-0.4,0.2-0.7,0.4-0.9,0.7c-0.2,0.3-0.4,0.6-0.5,0.9
			c-0.1,0.3-0.1,0.6-0.2,0.9h5.8C353.4,397.1,353.1,396.4,352.6,395.9z"/>
		<path class="st6" d="M366.4,392.7v2.5h-2.6v6.7c0,0.6,0.1,1,0.3,1.3c0.2,0.2,0.6,0.3,1.2,0.3c0.2,0,0.4,0,0.6,0
			c0.2,0,0.4,0,0.5-0.1v2.9c-0.3,0.1-0.6,0.1-1,0.1c-0.4,0-0.7,0-1.1,0c-0.6,0-1.1,0-1.6-0.1c-0.5-0.1-0.9-0.2-1.3-0.5
			c-0.4-0.2-0.7-0.5-0.9-1c-0.2-0.4-0.3-1-0.3-1.6v-8H358v-2.5h2.2v-4.1h3.6v4.1H366.4z"/>
		<path class="st6" d="M371.6,387.6v7h0.1c0.5-0.8,1-1.4,1.7-1.7c0.7-0.4,1.4-0.5,2.1-0.5c1,0,1.7,0.1,2.4,0.4
			c0.6,0.3,1.1,0.6,1.4,1.1c0.4,0.5,0.6,1.1,0.7,1.7c0.1,0.7,0.2,1.5,0.2,2.3v8.3h-3.6v-7.6c0-1.1-0.2-1.9-0.5-2.5
			c-0.3-0.5-0.9-0.8-1.8-0.8c-1,0-1.7,0.3-2.1,0.9c-0.4,0.6-0.7,1.6-0.7,3v7.1h-3.6v-18.7H371.6z"/>
		<path class="st6" d="M386.8,403c0.5,0.5,1.3,0.8,2.3,0.8c0.7,0,1.3-0.2,1.9-0.6c0.5-0.4,0.8-0.8,1-1.2h3.1
			c-0.5,1.6-1.3,2.8-2.3,3.5c-1,0.7-2.3,1-3.8,1c-1,0-1.9-0.2-2.8-0.5c-0.8-0.3-1.5-0.8-2.1-1.5c-0.6-0.6-1-1.4-1.3-2.2
			c-0.3-0.9-0.5-1.8-0.5-2.9c0-1,0.2-2,0.5-2.8c0.3-0.9,0.8-1.6,1.4-2.3c0.6-0.6,1.3-1.1,2.1-1.5c0.8-0.4,1.7-0.5,2.7-0.5
			c1.1,0,2.1,0.2,2.9,0.7c0.8,0.4,1.5,1,2,1.8c0.5,0.7,0.9,1.6,1.1,2.6c0.2,1,0.3,2,0.2,3h-9.4C386,401.6,386.3,402.5,386.8,403z
			 M390.9,395.9c-0.4-0.5-1.1-0.7-1.9-0.7c-0.6,0-1,0.1-1.4,0.3c-0.4,0.2-0.7,0.4-0.9,0.7c-0.2,0.3-0.4,0.6-0.5,0.9
			c-0.1,0.3-0.1,0.6-0.2,0.9h5.8C391.6,397.1,391.3,396.4,390.9,395.9z"/>
		<path class="st6" d="M400.8,392.7v2.5h0.1c0.2-0.4,0.4-0.8,0.7-1.2c0.3-0.4,0.6-0.7,1-0.9c0.4-0.3,0.8-0.4,1.2-0.6
			c0.4-0.1,0.9-0.2,1.3-0.2c0.2,0,0.5,0,0.8,0.1v3.4c-0.2,0-0.4-0.1-0.6-0.1c-0.2,0-0.5,0-0.7,0c-0.7,0-1.2,0.1-1.7,0.3
			c-0.5,0.2-0.8,0.5-1.1,0.9c-0.3,0.4-0.5,0.8-0.6,1.4c-0.1,0.5-0.2,1.1-0.2,1.7v6.1h-3.6v-13.5H400.8z"/>
	</g>
	<g>
		<path class="st6" d="M97.1,309.1v15.5h-31v30.2h31v15.5H24.8v-15.5h29.3v-30.2H24.8v-15.5H97.1z"/>
		<path class="st6" d="M65.8,250.4v29.7h19.4v-34.9h12v50.3H24.8v-50.2h12.1v34.8h17.2v-29.7H65.8z"/>
		<path class="st6" d="M85.1,220.7v-32.8h12v48.3H24.8v-15.5H85.1z"/>
		<path class="st6" d="M97.1,162.6V178H24.8v-15.5H97.1z"/>
		<path class="st6" d="M73,89.3c7.8,0.6,13.9,3.6,18.4,8.9s6.7,12.5,6.7,21.3c0,9.6-3.1,17.2-9.4,22.7c-6.2,5.5-14.8,8.3-25.7,8.3
			h-4.4c-6.9,0-13.1-1.3-18.4-3.8c-5.3-2.5-9.4-6.2-12.2-10.9c-2.8-4.7-4.2-10.2-4.2-16.5c0-8.7,2.2-15.6,6.7-20.9
			c4.5-5.3,10.7-8.4,18.8-9.2v15.5c-4.7,0.4-8,1.7-10.1,4c-2.1,2.3-3.2,5.9-3.2,10.6c0,5.2,1.8,9,5.3,11.6s9.1,3.9,16.5,3.9h5.5
			c7.8,0,13.5-1.2,17.1-3.7c3.6-2.5,5.4-6.3,5.4-11.6c0-4.8-1-8.3-3.2-10.7c-2.1-2.4-5.4-3.7-9.8-4V89.3z"/>
		<path class="st6" d="M78.1,40.2c-2.8,0-5,1-6.5,3.1c-1.5,2.1-3.1,5.8-4.8,11.1c-1.7,5.4-3.3,9.6-4.9,12.7C57.5,75.7,51.6,80,44,80
			c-3.9,0-7.4-1.1-10.4-3.4c-3.1-2.3-5.5-5.6-7.2-9.8s-2.6-9.1-2.6-14.4c0-5.4,0.9-10.1,2.8-14.3c1.9-4.2,4.5-7.4,7.9-9.8
			c3.4-2.3,7.3-3.5,11.6-3.5v15.5c-3.3,0-5.9,1.1-7.7,3.2c-1.8,2.2-2.8,5.2-2.8,9.1c0,3.8,0.8,6.7,2.3,8.8c1.5,2.1,3.6,3.1,6.1,3.1
			c2.3,0,4.3-1.2,5.9-3.7c1.6-2.5,3.1-6.1,4.5-10.9c2.5-8.8,5.7-15.2,9.5-19.2c3.8-4,8.5-6,14.1-6c6.3,0,11.2,2.5,14.7,7.4
			c3.6,4.9,5.3,11.5,5.3,19.8c0,5.8-1,11-3.1,15.8c-2,4.7-4.8,8.4-8.4,10.9c-3.5,2.5-7.6,3.7-12.3,3.7V66.8c8,0,12-4.9,12-14.8
			c0-3.7-0.7-6.5-2.2-8.6C82.7,41.2,80.7,40.2,78.1,40.2z"/>
	</g>
</g>
</svg>
