<?xml version="1.0" encoding="utf-8"?>
<!-- Generator: Adobe Illustrator 24.3.0, SVG Export Plug-In . SVG Version: 6.00 Build 0)  -->
<svg version="1.1" id="Layer_1" xmlns="http://www.w3.org/2000/svg" xmlns:xlink="http://www.w3.org/1999/xlink" x="0px" y="0px"
     viewBox="0 0 432 432" style="enable-background:new 0 0 432 432;" xml:space="preserve">
<style type="text/css">
    .st0{fill:url(#SVGID_1_);}
    .st1{fill:url(#SVGID_2_);}
    .st2{fill:url(#SVGID_3_);}
    .st3{fill:url(#SVGID_4_);}
    .st4{fill:url(#SVGID_5_);}
</style>
<g>
    <g>
        <linearGradient id="SVGID_1_" gradientUnits="userSpaceOnUse" x1="360.7068" y1="244.7812" x2="360.7068" y2="22.6733">
            <stop  offset="0.1127" style="stop-color:#212121"/>
            <stop  offset="0.7537" style="stop-color:#9B9B9B"/>
        </linearGradient>
        <path class="st0" d="M408.2,22.7h-95v96.3h0c0,0.8-0.1,1.6-0.1,2.5v24.7h0c35.2,0,65.8,19.9,82.3,49.4
            c8.1,14.5,12.7,31.4,12.7,49.4L408.2,22.7L408.2,22.7L408.2,22.7z"/>
        <g>
            <linearGradient id="SVGID_2_" gradientUnits="userSpaceOnUse" x1="170.766" y1="146.0668" x2="170.766" y2="368.1745">
                <stop  offset="0.1127" style="stop-color:#212121"/>
                <stop  offset="0.7537" style="stop-color:#9B9B9B"/>
            </linearGradient>
            <path class="st1" d="M218.3,244.8L218.3,244.8c-52.5,0-95-44.2-95-98.7v222.1h0l0,0v0h95v-96.3h0c0-0.8,0.1-1.6,0.1-2.5V244.8z"
                />

                <linearGradient id="SVGID_3_" gradientUnits="userSpaceOnUse" x1="-536.2074" y1="276.576" x2="-346.2054" y2="276.576" gradientTransform="matrix(-1 0 0 -1 -128 472)">
                <stop  offset="0.197" style="stop-color:#131313"/>
                <stop  offset="0.3768" style="stop-color:#CFCFCF"/>
                <stop  offset="0.6305" style="stop-color:#9B9B9B"/>
                <stop  offset="0.8873" style="stop-color:#212121"/>
            </linearGradient>
            <path class="st2" d="M218.2,146.1c0,54.5,42.5,98.7,95,98.7C313.2,190.3,270.7,146.1,218.2,146.1z"/>
            <linearGradient id="SVGID_4_" gradientUnits="userSpaceOnUse" x1="143.5342" y1="208.3984" x2="273.7248" y2="78.2078">
                <stop  offset="0.2463" style="stop-color:#9B9B9B"/>
                <stop  offset="0.8873" style="stop-color:#212121"/>
            </linearGradient>
            <path class="st3" d="M218.2,146.1v-24.7c0-0.8,0-1.6-0.1-2.5h0V22.7h-95v0l0,0h0v123.4v0c0,54.5,42.5,98.7,95,98.7h0h95
                C260.7,244.8,218.2,200.6,218.2,146.1z"/>
            <linearGradient id="SVGID_5_" gradientUnits="userSpaceOnUse" x1="219.7469" y1="144.5251" x2="425.8018" y2="350.5801">
                <stop  offset="0.1127" style="stop-color:#212121"/>
                <stop  offset="0.7537" style="stop-color:#9B9B9B"/>
            </linearGradient>
            <path class="st4" d="M395.5,195.4c-16.4-29.5-47.1-49.4-82.3-49.4h0h-95c52.5,0,95,44.2,95,98.7v24.7c0,0.8,0,1.6,0.1,2.5h0v96.3
                h95v0l0,0h0V244.8v0C408.2,226.8,403.6,209.9,395.5,195.4z"/>
        </g>
    </g>
    <g>
        <g>
            <path d="M28.2,399.6c0.2,0.4,0.5,0.8,0.9,1.1c0.4,0.3,0.8,0.5,1.3,0.6c0.5,0.1,1,0.2,1.5,0.2c0.4,0,0.7,0,1.1-0.1
                c0.4-0.1,0.8-0.2,1.1-0.4c0.4-0.2,0.6-0.4,0.9-0.7c0.2-0.3,0.4-0.7,0.4-1.2c0-0.5-0.2-0.9-0.5-1.2c-0.3-0.3-0.7-0.6-1.2-0.8
                c-0.5-0.2-1.1-0.4-1.7-0.5c-0.6-0.2-1.3-0.3-1.9-0.5c-0.7-0.2-1.3-0.4-2-0.6c-0.6-0.3-1.2-0.6-1.7-1s-0.9-0.9-1.2-1.5
                c-0.3-0.6-0.5-1.3-0.5-2.2c0-1,0.2-1.8,0.6-2.5c0.4-0.7,0.9-1.3,1.5-1.8c0.6-0.5,1.4-0.8,2.2-1c0.8-0.2,1.6-0.3,2.4-0.3
                c0.9,0,1.8,0.1,2.7,0.3c0.9,0.2,1.6,0.6,2.3,1.1c0.7,0.5,1.2,1.1,1.6,1.9c0.4,0.8,0.6,1.7,0.6,2.8h-3.8c0-0.6-0.1-1-0.3-1.4
                c-0.2-0.4-0.4-0.7-0.8-0.9c-0.3-0.2-0.7-0.4-1.1-0.4c-0.4-0.1-0.9-0.1-1.3-0.1c-0.3,0-0.6,0-1,0.1c-0.3,0.1-0.6,0.2-0.9,0.4
                c-0.3,0.2-0.5,0.4-0.6,0.7c-0.2,0.3-0.3,0.6-0.3,1c0,0.4,0.1,0.7,0.2,0.9c0.1,0.2,0.4,0.4,0.8,0.6c0.4,0.2,0.9,0.4,1.6,0.6
                c0.7,0.2,1.6,0.4,2.7,0.7c0.3,0.1,0.8,0.2,1.4,0.4c0.6,0.2,1.2,0.5,1.8,0.9c0.6,0.4,1.1,0.9,1.5,1.6c0.4,0.7,0.6,1.5,0.6,2.6
                c0,0.9-0.2,1.6-0.5,2.4c-0.3,0.7-0.8,1.4-1.4,1.9c-0.6,0.5-1.4,0.9-2.3,1.2c-0.9,0.3-2,0.4-3.2,0.4c-1,0-1.9-0.1-2.9-0.4
                c-0.9-0.3-1.8-0.6-2.5-1.2c-0.7-0.5-1.3-1.2-1.7-2.1c-0.4-0.8-0.6-1.8-0.6-3h3.8C27.9,398.7,28,399.2,28.2,399.6z"/>
            <path d="M41.3,388.6v-3.1h3.6v3.1H41.3z M44.8,390.7v13.5h-3.6v-13.5H44.8z"/>
            <path d="M51.1,390.7v1.8h0.1c0.5-0.7,1-1.2,1.7-1.6c0.7-0.4,1.4-0.6,2.3-0.6c0.8,0,1.6,0.2,2.3,0.5s1.2,0.9,1.5,1.7
                c0.4-0.6,0.9-1.1,1.6-1.6c0.7-0.5,1.4-0.7,2.4-0.7c0.7,0,1.3,0.1,1.9,0.3c0.6,0.2,1.1,0.5,1.5,0.8c0.4,0.4,0.7,0.9,1,1.5
                c0.2,0.6,0.4,1.4,0.4,2.2v9h-3.6v-7.7c0-0.5,0-0.9-0.1-1.3c0-0.4-0.1-0.7-0.3-1c-0.2-0.3-0.4-0.5-0.7-0.7
                c-0.3-0.2-0.7-0.3-1.2-0.3c-0.5,0-0.9,0.1-1.2,0.3c-0.3,0.2-0.6,0.5-0.7,0.8c-0.2,0.3-0.3,0.7-0.4,1.1c-0.1,0.4-0.1,0.8-0.1,1.2
                v7.5h-3.6v-7.6c0-0.4,0-0.8,0-1.2c0-0.4-0.1-0.8-0.2-1.1c-0.1-0.3-0.3-0.6-0.6-0.8c-0.3-0.2-0.7-0.3-1.3-0.3
                c-0.2,0-0.4,0-0.7,0.1c-0.3,0.1-0.5,0.2-0.8,0.4c-0.3,0.2-0.5,0.5-0.7,0.9c-0.2,0.4-0.3,0.9-0.3,1.6v7.8h-3.6v-13.5H51.1z"/>
            <path d="M79.2,404.2v-1.9h-0.1c-0.5,0.8-1,1.4-1.8,1.7c-0.7,0.3-1.5,0.5-2.2,0.5c-1,0-1.7-0.1-2.3-0.4c-0.6-0.3-1.1-0.6-1.4-1.1
                c-0.4-0.5-0.6-1.1-0.7-1.7c-0.1-0.7-0.2-1.5-0.2-2.3v-8.3H74v7.6c0,1.1,0.2,1.9,0.5,2.5c0.3,0.5,0.9,0.8,1.8,0.8
                c1,0,1.7-0.3,2.1-0.9s0.7-1.6,0.7-3v-7.1h3.6v13.5H79.2z"/>
            <path d="M89,385.6v18.7h-3.6v-18.7H89z"/>
            <path d="M91.7,394.9c0.1-0.9,0.3-1.6,0.6-2.2c0.4-0.6,0.8-1,1.4-1.4c0.6-0.3,1.2-0.6,1.9-0.7c0.7-0.1,1.4-0.2,2.2-0.2
                c0.7,0,1.3,0,2,0.1c0.7,0.1,1.3,0.3,1.8,0.6c0.6,0.3,1,0.7,1.4,1.2c0.4,0.5,0.5,1.2,0.5,2v7c0,0.6,0,1.2,0.1,1.7
                c0.1,0.6,0.2,1,0.4,1.3h-3.6c-0.1-0.2-0.1-0.4-0.2-0.6c0-0.2-0.1-0.4-0.1-0.7c-0.6,0.6-1.2,1-2,1.3s-1.6,0.4-2.4,0.4
                c-0.6,0-1.2-0.1-1.7-0.2c-0.5-0.2-1-0.4-1.4-0.7c-0.4-0.3-0.7-0.7-0.9-1.3c-0.2-0.5-0.3-1.1-0.3-1.8c0-0.8,0.1-1.4,0.4-1.9
                c0.3-0.5,0.6-0.9,1-1.2c0.4-0.3,0.9-0.5,1.4-0.7c0.5-0.1,1.1-0.3,1.6-0.4c0.5-0.1,1.1-0.2,1.6-0.2s1-0.1,1.4-0.2
                c0.4-0.1,0.7-0.3,1-0.5s0.3-0.5,0.3-0.9c0-0.4-0.1-0.7-0.2-1c-0.1-0.2-0.3-0.4-0.5-0.5c-0.2-0.1-0.5-0.2-0.7-0.3
                c-0.3,0-0.6-0.1-0.9-0.1c-0.7,0-1.3,0.2-1.7,0.5c-0.4,0.3-0.6,0.8-0.7,1.6H91.7z M99.9,397.6c-0.2,0.1-0.3,0.2-0.6,0.3
                c-0.2,0.1-0.5,0.1-0.7,0.2c-0.3,0.1-0.5,0.1-0.8,0.1c-0.3,0-0.6,0.1-0.9,0.1c-0.3,0.1-0.5,0.1-0.8,0.2c-0.3,0.1-0.5,0.2-0.7,0.4
                c-0.2,0.1-0.3,0.3-0.5,0.6c-0.1,0.2-0.2,0.5-0.2,0.9c0,0.3,0.1,0.6,0.2,0.8c0.1,0.2,0.3,0.4,0.5,0.5c0.2,0.1,0.4,0.2,0.7,0.3
                c0.3,0.1,0.5,0.1,0.8,0.1c0.7,0,1.2-0.1,1.6-0.4c0.4-0.2,0.7-0.5,0.9-0.9c0.2-0.3,0.3-0.7,0.3-1c0-0.3,0.1-0.6,0.1-0.8V397.6z"/>
            <path d="M113.4,390.7v2.5h-2.6v6.7c0,0.6,0.1,1,0.3,1.3c0.2,0.2,0.6,0.3,1.2,0.3c0.2,0,0.4,0,0.6,0c0.2,0,0.4,0,0.5-0.1v2.9
                c-0.3,0.1-0.6,0.1-1,0.1c-0.4,0-0.7,0-1.1,0c-0.6,0-1.1,0-1.6-0.1c-0.5-0.1-0.9-0.2-1.3-0.5c-0.4-0.2-0.7-0.5-0.9-1
                c-0.2-0.4-0.3-1-0.3-1.6v-8h-2.2v-2.5h2.2v-4.1h3.6v4.1H113.4z"/>
            <path d="M115.2,388.6v-3.1h3.6v3.1H115.2z M118.8,390.7v13.5h-3.6v-13.5H118.8z"/>
            <path d="M121.7,394.5c0.3-0.9,0.8-1.6,1.4-2.2c0.6-0.6,1.3-1.1,2.1-1.4c0.8-0.3,1.7-0.5,2.8-0.5s1.9,0.2,2.8,0.5
                c0.8,0.3,1.5,0.8,2.1,1.4c0.6,0.6,1,1.4,1.4,2.2c0.3,0.9,0.5,1.9,0.5,2.9c0,1.1-0.2,2.1-0.5,2.9c-0.3,0.9-0.8,1.6-1.4,2.2
                c-0.6,0.6-1.3,1.1-2.1,1.4c-0.8,0.3-1.8,0.5-2.8,0.5s-1.9-0.2-2.8-0.5c-0.8-0.3-1.5-0.8-2.1-1.4c-0.6-0.6-1-1.4-1.4-2.2
                c-0.3-0.9-0.5-1.8-0.5-2.9C121.2,396.4,121.4,395.4,121.7,394.5z M124.9,399.1c0.1,0.5,0.3,1,0.5,1.4c0.2,0.4,0.6,0.7,1,1
                c0.4,0.2,0.9,0.4,1.5,0.4s1.1-0.1,1.5-0.4c0.4-0.2,0.7-0.6,1-1c0.2-0.4,0.4-0.9,0.5-1.4c0.1-0.5,0.2-1,0.2-1.6
                c0-0.5-0.1-1.1-0.2-1.6c-0.1-0.5-0.3-1-0.5-1.4c-0.2-0.4-0.6-0.7-1-1c-0.4-0.3-0.9-0.4-1.5-0.4s-1.1,0.1-1.5,0.4
                c-0.4,0.3-0.7,0.6-1,1c-0.2,0.4-0.4,0.9-0.5,1.4c-0.1,0.5-0.1,1.1-0.1,1.6C124.8,398,124.8,398.6,124.9,399.1z"/>
            <path d="M140.4,390.7v1.9h0.1c0.5-0.8,1-1.4,1.8-1.7c0.7-0.4,1.5-0.5,2.2-0.5c1,0,1.7,0.1,2.4,0.4c0.6,0.3,1.1,0.6,1.4,1.1
                c0.4,0.5,0.6,1.1,0.7,1.7c0.1,0.7,0.2,1.5,0.2,2.3v8.3h-3.6v-7.6c0-1.1-0.2-1.9-0.5-2.5c-0.3-0.5-0.9-0.8-1.8-0.8
                c-1,0-1.7,0.3-2.1,0.9c-0.4,0.6-0.7,1.6-0.7,3v7.1H137v-13.5H140.4z"/>
            <path d="M154.9,400.9c0.2,0.3,0.4,0.5,0.6,0.7s0.5,0.3,0.9,0.4c0.3,0.1,0.7,0.1,1,0.1c0.3,0,0.5,0,0.8-0.1
                c0.3-0.1,0.5-0.2,0.8-0.3c0.2-0.1,0.4-0.3,0.6-0.5c0.2-0.2,0.2-0.5,0.2-0.8c0-0.6-0.4-1-1.1-1.3c-0.7-0.3-1.7-0.6-3-0.8
                c-0.5-0.1-1-0.3-1.5-0.4c-0.5-0.2-0.9-0.4-1.3-0.7c-0.4-0.3-0.7-0.6-0.9-1c-0.2-0.4-0.4-0.9-0.4-1.5c0-0.9,0.2-1.6,0.5-2.1
                c0.3-0.6,0.8-1,1.3-1.3c0.5-0.3,1.1-0.5,1.8-0.7c0.7-0.1,1.4-0.2,2.1-0.2s1.4,0.1,2.1,0.2c0.7,0.1,1.3,0.4,1.8,0.7
                c0.5,0.3,0.9,0.8,1.3,1.3c0.3,0.5,0.5,1.2,0.6,2.1h-3.4c-0.1-0.7-0.3-1.2-0.8-1.5c-0.5-0.3-1-0.4-1.7-0.4c-0.2,0-0.4,0-0.7,0
                c-0.2,0-0.4,0.1-0.6,0.2c-0.2,0.1-0.4,0.2-0.5,0.4c-0.1,0.2-0.2,0.4-0.2,0.7c0,0.3,0.1,0.6,0.4,0.8c0.2,0.2,0.5,0.4,0.9,0.5
                c0.4,0.1,0.8,0.2,1.3,0.4c0.5,0.1,1,0.2,1.5,0.3c0.5,0.1,1,0.3,1.5,0.4c0.5,0.2,0.9,0.4,1.3,0.7c0.4,0.3,0.7,0.6,0.9,1.1
                c0.2,0.4,0.4,1,0.4,1.6c0,0.9-0.2,1.6-0.5,2.2c-0.3,0.6-0.8,1.1-1.3,1.5c-0.6,0.4-1.2,0.6-1.9,0.8c-0.7,0.1-1.4,0.2-2.2,0.2
                c-0.8,0-1.5-0.1-2.2-0.2c-0.7-0.2-1.4-0.4-1.9-0.8c-0.6-0.4-1-0.8-1.4-1.5c-0.4-0.6-0.6-1.4-0.6-2.3h3.4
                C154.7,400.2,154.7,400.6,154.9,400.9z"/>
            <path d="M181.7,385.6l6.7,18.7h-4.1l-1.4-4.2h-6.7l-1.4,4.2h-4l6.8-18.7H181.7z M182,397l-2.3-6.8h-0.1l-2.3,6.8H182z"/>
            <path d="M193,390.7v2.5h0.1c0.2-0.4,0.4-0.8,0.7-1.2c0.3-0.4,0.6-0.7,1-0.9c0.4-0.3,0.8-0.4,1.2-0.6c0.4-0.1,0.9-0.2,1.3-0.2
                c0.2,0,0.5,0,0.8,0.1v3.4c-0.2,0-0.4-0.1-0.6-0.1c-0.2,0-0.5,0-0.7,0c-0.7,0-1.2,0.1-1.7,0.3c-0.5,0.2-0.8,0.5-1.1,0.9
                c-0.3,0.4-0.5,0.8-0.6,1.4c-0.1,0.5-0.2,1.1-0.2,1.7v6.1h-3.6v-13.5H193z"/>
            <path d="M202.8,401c0.5,0.5,1.3,0.8,2.3,0.8c0.7,0,1.3-0.2,1.9-0.6c0.5-0.4,0.8-0.8,1-1.2h3.1c-0.5,1.6-1.3,2.8-2.3,3.5
                c-1,0.7-2.3,1-3.8,1c-1,0-1.9-0.2-2.8-0.5c-0.8-0.3-1.5-0.8-2.1-1.5c-0.6-0.6-1-1.4-1.3-2.2c-0.3-0.9-0.5-1.8-0.5-2.9
                c0-1,0.2-2,0.5-2.8c0.3-0.9,0.8-1.6,1.4-2.3c0.6-0.6,1.3-1.1,2.1-1.5c0.8-0.4,1.7-0.5,2.7-0.5c1.1,0,2.1,0.2,2.9,0.7
                c0.8,0.4,1.5,1,2,1.8c0.5,0.7,0.9,1.6,1.1,2.6c0.2,1,0.3,2,0.2,3h-9.4C201.9,399.6,202.2,400.5,202.8,401z M206.8,393.9
                c-0.4-0.5-1.1-0.7-1.9-0.7c-0.6,0-1,0.1-1.4,0.3c-0.4,0.2-0.7,0.4-0.9,0.7c-0.2,0.3-0.4,0.6-0.5,0.9c-0.1,0.3-0.1,0.6-0.2,0.9
                h5.8C207.5,395.1,207.2,394.4,206.8,393.9z"/>
            <path d="M229.2,385.6c0.9,0,1.6,0.1,2.3,0.2s1.3,0.4,1.8,0.8c0.5,0.4,0.9,0.8,1.2,1.4c0.3,0.6,0.4,1.3,0.4,2.2
                c0,0.9-0.2,1.7-0.6,2.4c-0.4,0.6-1,1.1-1.8,1.5c1.1,0.3,1.9,0.9,2.5,1.7c0.5,0.8,0.8,1.8,0.8,3c0,0.9-0.2,1.8-0.5,2.4
                c-0.4,0.7-0.8,1.2-1.4,1.7c-0.6,0.4-1.3,0.8-2,1c-0.8,0.2-1.5,0.3-2.4,0.3h-8.7v-18.7H229.2z M228.7,393.1c0.7,0,1.3-0.2,1.7-0.5
                c0.5-0.3,0.7-0.9,0.7-1.7c0-0.4-0.1-0.8-0.2-1.1c-0.2-0.3-0.4-0.5-0.6-0.7s-0.5-0.3-0.9-0.3c-0.3-0.1-0.7-0.1-1-0.1h-3.7v4.4
                H228.7z M228.9,401c0.4,0,0.8,0,1.1-0.1c0.4-0.1,0.7-0.2,0.9-0.4c0.3-0.2,0.5-0.4,0.6-0.7c0.2-0.3,0.2-0.7,0.2-1.2
                c0-1-0.3-1.6-0.8-2.1c-0.5-0.4-1.2-0.6-2.1-0.6h-4.3v5.1H228.9z"/>
            <path d="M241.9,401c0.5,0.5,1.3,0.8,2.3,0.8c0.7,0,1.3-0.2,1.9-0.6c0.5-0.4,0.8-0.8,1-1.2h3.1c-0.5,1.6-1.3,2.8-2.3,3.5
                c-1,0.7-2.3,1-3.8,1c-1,0-1.9-0.2-2.8-0.5c-0.8-0.3-1.5-0.8-2.1-1.5c-0.6-0.6-1-1.4-1.3-2.2c-0.3-0.9-0.5-1.8-0.5-2.9
                c0-1,0.2-2,0.5-2.8c0.3-0.9,0.8-1.6,1.4-2.3c0.6-0.6,1.3-1.1,2.1-1.5c0.8-0.4,1.7-0.5,2.7-0.5c1.1,0,2.1,0.2,2.9,0.7
                c0.8,0.4,1.5,1,2,1.8c0.5,0.7,0.9,1.6,1.1,2.6c0.2,1,0.3,2,0.2,3H241C241.1,399.6,241.4,400.5,241.9,401z M245.9,393.9
                c-0.4-0.5-1.1-0.7-1.9-0.7c-0.6,0-1,0.1-1.4,0.3c-0.4,0.2-0.7,0.4-0.9,0.7c-0.2,0.3-0.4,0.6-0.5,0.9c-0.1,0.3-0.1,0.6-0.2,0.9
                h5.8C246.7,395.1,246.4,394.4,245.9,393.9z"/>
            <path d="M259.7,390.7v2.5H257v6.7c0,0.6,0.1,1,0.3,1.3c0.2,0.2,0.6,0.3,1.2,0.3c0.2,0,0.4,0,0.6,0c0.2,0,0.4,0,0.5-0.1v2.9
                c-0.3,0.1-0.6,0.1-1,0.1c-0.4,0-0.7,0-1.1,0c-0.6,0-1.1,0-1.6-0.1c-0.5-0.1-0.9-0.2-1.3-0.5c-0.4-0.2-0.7-0.5-0.9-1
                c-0.2-0.4-0.3-1-0.3-1.6v-8h-2.2v-2.5h2.2v-4.1h3.6v4.1H259.7z"/>
            <path d="M268.5,390.7v2.5h-2.6v6.7c0,0.6,0.1,1,0.3,1.3c0.2,0.2,0.6,0.3,1.2,0.3c0.2,0,0.4,0,0.6,0c0.2,0,0.4,0,0.5-0.1v2.9
                c-0.3,0.1-0.6,0.1-1,0.1c-0.4,0-0.7,0-1.1,0c-0.6,0-1.1,0-1.6-0.1c-0.5-0.1-0.9-0.2-1.3-0.5c-0.4-0.2-0.7-0.5-0.9-1
                c-0.2-0.4-0.3-1-0.3-1.6v-8h-2.2v-2.5h2.2v-4.1h3.6v4.1H268.5z"/>
            <path d="M274,401c0.5,0.5,1.3,0.8,2.3,0.8c0.7,0,1.3-0.2,1.9-0.6c0.5-0.4,0.8-0.8,1-1.2h3.1c-0.5,1.6-1.3,2.8-2.3,3.5
                c-1,0.7-2.3,1-3.8,1c-1,0-1.9-0.2-2.8-0.5c-0.8-0.3-1.5-0.8-2.1-1.5c-0.6-0.6-1-1.4-1.3-2.2c-0.3-0.9-0.5-1.8-0.5-2.9
                c0-1,0.2-2,0.5-2.8c0.3-0.9,0.8-1.6,1.4-2.3c0.6-0.6,1.3-1.1,2.1-1.5c0.8-0.4,1.7-0.5,2.7-0.5c1.1,0,2.1,0.2,2.9,0.7
                c0.8,0.4,1.5,1,2,1.8c0.5,0.7,0.9,1.6,1.1,2.6c0.2,1,0.3,2,0.2,3h-9.4C273.2,399.6,273.5,400.5,274,401z M278.1,393.9
                c-0.4-0.5-1.1-0.7-1.9-0.7c-0.6,0-1,0.1-1.4,0.3c-0.4,0.2-0.7,0.4-0.9,0.7c-0.2,0.3-0.4,0.6-0.5,0.9c-0.1,0.3-0.1,0.6-0.2,0.9
                h5.8C278.8,395.1,278.5,394.4,278.1,393.9z"/>
            <path d="M288,390.7v2.5h0.1c0.2-0.4,0.4-0.8,0.7-1.2c0.3-0.4,0.6-0.7,1-0.9c0.4-0.3,0.8-0.4,1.2-0.6c0.4-0.1,0.9-0.2,1.3-0.2
                c0.2,0,0.5,0,0.8,0.1v3.4c-0.2,0-0.4-0.1-0.6-0.1c-0.2,0-0.5,0-0.7,0c-0.7,0-1.2,0.1-1.7,0.3c-0.5,0.2-0.8,0.5-1.1,0.9
                c-0.3,0.4-0.5,0.8-0.6,1.4c-0.1,0.5-0.2,1.1-0.2,1.7v6.1h-3.6v-13.5H288z"/>
            <path d="M300.4,389v-3.4h14.7v3.4h-5.4v15.2h-3.9V389H300.4z"/>
            <path d="M314.1,394.5c0.3-0.9,0.8-1.6,1.4-2.2c0.6-0.6,1.3-1.1,2.1-1.4c0.8-0.3,1.7-0.5,2.8-0.5c1,0,1.9,0.2,2.8,0.5
                c0.8,0.3,1.5,0.8,2.1,1.4c0.6,0.6,1,1.4,1.4,2.2c0.3,0.9,0.5,1.9,0.5,2.9c0,1.1-0.2,2.1-0.5,2.9c-0.3,0.9-0.8,1.6-1.4,2.2
                c-0.6,0.6-1.3,1.1-2.1,1.4c-0.8,0.3-1.8,0.5-2.8,0.5c-1,0-1.9-0.2-2.8-0.5c-0.8-0.3-1.5-0.8-2.1-1.4c-0.6-0.6-1-1.4-1.4-2.2
                c-0.3-0.9-0.5-1.8-0.5-2.9C313.6,396.4,313.8,395.4,314.1,394.5z M317.3,399.1c0.1,0.5,0.3,1,0.5,1.4c0.2,0.4,0.6,0.7,1,1
                c0.4,0.2,0.9,0.4,1.5,0.4c0.6,0,1.1-0.1,1.5-0.4c0.4-0.2,0.7-0.6,1-1c0.2-0.4,0.4-0.9,0.5-1.4c0.1-0.5,0.2-1,0.2-1.6
                c0-0.5-0.1-1.1-0.2-1.6c-0.1-0.5-0.3-1-0.5-1.4c-0.2-0.4-0.6-0.7-1-1c-0.4-0.3-0.9-0.4-1.5-0.4c-0.6,0-1.1,0.1-1.5,0.4
                c-0.4,0.3-0.7,0.6-1,1c-0.2,0.4-0.4,0.9-0.5,1.4c-0.1,0.5-0.1,1.1-0.1,1.6C317.2,398,317.2,398.6,317.3,399.1z"/>
            <path d="M341.7,405.2c-0.1,0.7-0.4,1.3-0.9,1.9c-0.5,0.6-1.2,1.1-2,1.5c-0.9,0.4-2.1,0.6-3.6,0.6c-0.6,0-1.3-0.1-1.9-0.2
                c-0.7-0.2-1.3-0.4-1.8-0.8c-0.5-0.3-1-0.8-1.4-1.3c-0.4-0.5-0.6-1.2-0.6-2h3.5c0.2,0.7,0.5,1.2,1,1.5c0.5,0.3,1,0.4,1.7,0.4
                c1,0,1.7-0.3,2.2-0.9c0.5-0.6,0.7-1.4,0.7-2.4v-1.8h-0.1c-0.4,0.7-0.9,1.2-1.6,1.6c-0.7,0.3-1.5,0.5-2.3,0.5
                c-1,0-1.8-0.2-2.5-0.5c-0.7-0.4-1.3-0.8-1.7-1.5c-0.5-0.6-0.8-1.3-1-2.2c-0.2-0.8-0.3-1.7-0.3-2.6c0-0.9,0.1-1.7,0.4-2.5
                c0.2-0.8,0.6-1.5,1.1-2.1c0.5-0.6,1.1-1.1,1.7-1.5c0.7-0.4,1.5-0.5,2.4-0.5c0.9,0,1.6,0.2,2.3,0.5s1.2,0.9,1.6,1.7h0.1v-1.8h3.4
                v12.6C341.9,403.9,341.8,404.5,341.7,405.2z M336.8,400.7c0.4-0.2,0.7-0.5,1-0.8c0.3-0.3,0.4-0.7,0.6-1.2
                c0.1-0.4,0.2-0.9,0.2-1.4c0-0.6-0.1-1.1-0.2-1.6s-0.3-0.9-0.5-1.3c-0.2-0.4-0.5-0.7-0.9-0.9c-0.4-0.2-0.9-0.3-1.5-0.3
                c-0.5,0-0.9,0.1-1.3,0.3c-0.4,0.2-0.7,0.5-0.9,0.8c-0.2,0.4-0.4,0.8-0.5,1.2c-0.1,0.5-0.2,0.9-0.2,1.5c0,0.5,0,1,0.1,1.4
                c0.1,0.5,0.3,0.9,0.5,1.3c0.2,0.4,0.5,0.7,0.9,0.9c0.4,0.2,0.8,0.4,1.4,0.4C335.9,401,336.4,400.9,336.8,400.7z"/>
            <path d="M348.6,401c0.5,0.5,1.3,0.8,2.3,0.8c0.7,0,1.3-0.2,1.9-0.6c0.5-0.4,0.8-0.8,1-1.2h3.1c-0.5,1.6-1.3,2.8-2.3,3.5
                c-1,0.7-2.3,1-3.8,1c-1,0-1.9-0.2-2.8-0.5c-0.8-0.3-1.5-0.8-2.1-1.5c-0.6-0.6-1-1.4-1.3-2.2c-0.3-0.9-0.5-1.8-0.5-2.9
                c0-1,0.2-2,0.5-2.8c0.3-0.9,0.8-1.6,1.4-2.3c0.6-0.6,1.3-1.1,2.1-1.5c0.8-0.4,1.7-0.5,2.7-0.5c1.1,0,2.1,0.2,2.9,0.7
                c0.8,0.4,1.5,1,2,1.8c0.5,0.7,0.9,1.6,1.1,2.6c0.2,1,0.3,2,0.2,3h-9.4C347.7,399.6,348,400.5,348.6,401z M352.6,393.9
                c-0.4-0.5-1.1-0.7-1.9-0.7c-0.6,0-1,0.1-1.4,0.3c-0.4,0.2-0.7,0.4-0.9,0.7c-0.2,0.3-0.4,0.6-0.5,0.9c-0.1,0.3-0.1,0.6-0.2,0.9
                h5.8C353.3,395.1,353,394.4,352.6,393.9z"/>
            <path d="M366.3,390.7v2.5h-2.6v6.7c0,0.6,0.1,1,0.3,1.3c0.2,0.2,0.6,0.3,1.2,0.3c0.2,0,0.4,0,0.6,0c0.2,0,0.4,0,0.5-0.1v2.9
                c-0.3,0.1-0.6,0.1-1,0.1c-0.4,0-0.7,0-1.1,0c-0.6,0-1.1,0-1.6-0.1c-0.5-0.1-0.9-0.2-1.3-0.5c-0.4-0.2-0.7-0.5-0.9-1
                c-0.2-0.4-0.3-1-0.3-1.6v-8H358v-2.5h2.2v-4.1h3.6v4.1H366.3z"/>
            <path d="M371.6,385.6v7h0.1c0.5-0.8,1-1.4,1.7-1.7c0.7-0.4,1.4-0.5,2.1-0.5c1,0,1.7,0.1,2.4,0.4c0.6,0.3,1.1,0.6,1.4,1.1
                c0.4,0.5,0.6,1.1,0.7,1.7c0.1,0.7,0.2,1.5,0.2,2.3v8.3h-3.6v-7.6c0-1.1-0.2-1.9-0.5-2.5s-0.9-0.8-1.8-0.8c-1,0-1.7,0.3-2.1,0.9
                c-0.4,0.6-0.7,1.6-0.7,3v7.1H368v-18.7H371.6z"/>
            <path d="M386.8,401c0.5,0.5,1.3,0.8,2.3,0.8c0.7,0,1.3-0.2,1.9-0.6c0.5-0.4,0.8-0.8,1-1.2h3.1c-0.5,1.6-1.3,2.8-2.3,3.5
                c-1,0.7-2.3,1-3.8,1c-1,0-1.9-0.2-2.8-0.5c-0.8-0.3-1.5-0.8-2.1-1.5c-0.6-0.6-1-1.4-1.3-2.2c-0.3-0.9-0.5-1.8-0.5-2.9
                c0-1,0.2-2,0.5-2.8c0.3-0.9,0.8-1.6,1.4-2.3c0.6-0.6,1.3-1.1,2.1-1.5c0.8-0.4,1.7-0.5,2.7-0.5c1.1,0,2.1,0.2,2.9,0.7
                c0.8,0.4,1.5,1,2,1.8c0.5,0.7,0.9,1.6,1.1,2.6c0.2,1,0.3,2,0.2,3h-9.4C385.9,399.6,386.2,400.5,386.8,401z M390.8,393.9
                c-0.4-0.5-1.1-0.7-1.9-0.7c-0.6,0-1,0.1-1.4,0.3c-0.4,0.2-0.7,0.4-0.9,0.7c-0.2,0.3-0.4,0.6-0.5,0.9c-0.1,0.3-0.1,0.6-0.2,0.9
                h5.8C391.5,395.1,391.2,394.4,390.8,393.9z"/>
            <path d="M400.8,390.7v2.5h0.1c0.2-0.4,0.4-0.8,0.7-1.2c0.3-0.4,0.6-0.7,1-0.9c0.4-0.3,0.8-0.4,1.2-0.6c0.4-0.1,0.9-0.2,1.3-0.2
                c0.2,0,0.5,0,0.8,0.1v3.4c-0.2,0-0.4-0.1-0.6-0.1c-0.2,0-0.5,0-0.7,0c-0.7,0-1.2,0.1-1.7,0.3c-0.5,0.2-0.8,0.5-1.1,0.9
                c-0.3,0.4-0.5,0.8-0.6,1.4c-0.1,0.5-0.2,1.1-0.2,1.7v6.1h-3.6v-13.5H400.8z"/>
        </g>
        <g>
            <path d="M97,307.1v15.5h-31v30.2h31v15.5H24.8v-15.5h29.3v-30.2H24.8v-15.5H97z"/>
            <path d="M65.7,248.4v29.7h19.4v-34.9h12v50.3H24.8v-50.2h12.1v34.8h17.2v-29.7H65.7z"/>
            <path d="M85.1,218.7v-32.8h12v48.3H24.8v-15.5H85.1z"/>
            <path d="M97,160.6V176H24.8v-15.5H97z"/>
            <path d="M73,87.3c7.8,0.6,13.9,3.6,18.4,8.9c4.5,5.4,6.7,12.5,6.7,21.3c0,9.6-3.1,17.2-9.4,22.7c-6.2,5.5-14.8,8.3-25.7,8.3h-4.4
                c-6.9,0-13.1-1.3-18.4-3.8c-5.3-2.5-9.4-6.2-12.2-10.9c-2.8-4.7-4.2-10.2-4.2-16.5c0-8.7,2.2-15.6,6.7-20.9
                c4.5-5.3,10.7-8.4,18.8-9.2v15.5c-4.7,0.4-8,1.7-10.1,4s-3.2,5.9-3.2,10.6c0,5.2,1.8,9,5.3,11.6c3.6,2.6,9.1,3.9,16.5,3.9h5.5
                c7.8,0,13.5-1.2,17.1-3.7c3.6-2.5,5.4-6.3,5.4-11.6c0-4.8-1-8.3-3.2-10.7c-2.1-2.4-5.4-3.7-9.8-4V87.3z"/>
            <path d="M78.1,38.2c-2.8,0-5,1-6.5,3.1c-1.5,2.1-3.1,5.8-4.8,11.1c-1.7,5.4-3.3,9.6-4.9,12.7C57.5,73.7,51.5,78,44,78
                c-3.9,0-7.4-1.1-10.4-3.4c-3.1-2.3-5.5-5.6-7.2-9.8s-2.6-9.1-2.6-14.4c0-5.4,0.9-10.1,2.8-14.3c1.9-4.2,4.5-7.4,7.9-9.8
                c3.4-2.3,7.3-3.5,11.6-3.5v15.5c-3.3,0-5.9,1.1-7.7,3.2c-1.8,2.2-2.8,5.2-2.8,9.1c0,3.8,0.8,6.7,2.3,8.8s3.6,3.1,6.1,3.1
                c2.3,0,4.3-1.2,5.9-3.7c1.6-2.5,3.1-6.1,4.5-10.9c2.5-8.8,5.7-15.2,9.5-19.2c3.8-4,8.5-6,14.1-6c6.3,0,11.2,2.5,14.7,7.4
                C96.3,35,98,41.6,98,49.9c0,5.8-1,11-3.1,15.8c-2,4.7-4.8,8.4-8.4,10.9c-3.5,2.5-7.6,3.7-12.3,3.7V64.8c8,0,12-4.9,12-14.8
                c0-3.7-0.7-6.5-2.2-8.6C82.7,39.2,80.7,38.2,78.1,38.2z"/>
        </g>
    </g>
</g>
</svg>
